<svg width="24" height="18" viewBox="0 0 24 18" fill="none" xmlns="http://www.w3.org/2000/svg">
<g id="Black">
<path id="Vector" d="M0.210995 0.384527C-0.00931733 0.501715 5.76701e-05 0.351715 5.76701e-05 4.71578V8.85484L0.10787 8.96734C0.16412 9.03296 0.637558 9.32828 1.15787 9.62828C1.96881 10.0923 2.13756 10.172 2.311 10.172C2.4235 10.172 2.536 10.1486 2.56412 10.1205C2.60162 10.083 2.80318 10.1767 3.286 10.458L3.961 10.847L3.94225 11.2314C3.92818 11.5736 3.94225 11.6533 4.05475 11.8923C4.25162 12.3283 4.58912 12.6236 5.01568 12.7314L5.22662 12.783L5.23131 13.1345C5.24068 13.7486 5.536 14.222 6.07037 14.4892C6.30475 14.6017 6.42193 14.6345 6.66568 14.6345H6.97037L6.9985 14.9111C7.04537 15.4361 7.36881 15.8861 7.86568 16.1158C8.18443 16.2611 8.7235 16.2798 9.00943 16.158C9.19693 16.0783 9.23443 16.0923 9.23443 16.2423C9.23443 16.4205 9.51568 16.9127 9.71256 17.0861C10.0079 17.3392 10.3594 17.4517 10.7813 17.4283C11.1329 17.4095 11.3391 17.3392 11.7188 17.1095L11.8876 17.0111L12.3751 17.2923C12.6469 17.447 12.9704 17.597 13.0922 17.6298C13.9547 17.8455 14.8547 17.2595 14.9391 16.4298L14.9672 16.1814L15.1594 16.2517C15.4172 16.3408 15.9282 16.3408 16.2141 16.2423C16.4907 16.1533 16.8329 15.8627 16.9922 15.5861C17.0579 15.4783 17.1329 15.258 17.161 15.0986C17.2079 14.8314 17.2219 14.8127 17.3157 14.8408C17.3672 14.8595 17.5547 14.8736 17.7235 14.8736C18.2766 14.8736 18.7454 14.5689 19.0172 14.0486C19.1204 13.847 19.1438 13.7392 19.1485 13.4533C19.1485 13.2611 19.1391 13.0502 19.1251 12.9892C19.1063 12.8955 19.1297 12.872 19.3454 12.7877C19.6454 12.6798 19.9876 12.3564 20.1141 12.0705C20.2407 11.7892 20.2735 11.3345 20.1938 11.0345L20.1282 10.7955L20.7563 10.4345C21.211 10.1673 21.3985 10.083 21.436 10.1205C21.4641 10.1486 21.5766 10.172 21.6891 10.172C21.8626 10.172 22.0313 10.0923 22.8422 9.62359C23.3626 9.32359 23.836 9.03765 23.8969 8.98609L24.0001 8.89234V4.72515C24.0001 0.64234 24.0001 0.562653 23.9063 0.468903C23.7985 0.36109 23.6157 0.309526 23.4751 0.347027C23.3297 0.384527 18.0985 3.40328 17.9672 3.52515C17.9063 3.5814 17.8594 3.68921 17.8501 3.78765C17.836 3.95171 17.8172 3.96578 17.1422 4.35953C16.7251 4.59859 16.3829 4.83296 16.2751 4.95015C16.1391 5.10484 16.0501 5.1564 15.8532 5.19859C15.3094 5.31109 15.1313 5.25484 13.9032 4.54703C13.0969 4.08765 12.8579 3.97515 12.5719 3.90953C12.1641 3.82046 11.686 3.83921 11.3204 3.96109C11.1938 4.00328 10.5797 4.33609 9.95631 4.69234C8.69068 5.42359 8.70006 5.4189 8.17037 5.22671C7.94537 5.14703 7.81412 5.06734 7.711 4.94078C7.62193 4.83765 7.2985 4.61265 6.86725 4.36421C6.18756 3.97046 6.16412 3.95171 6.136 3.77828C6.12193 3.67984 6.06568 3.56265 6.01881 3.51578C5.97193 3.4689 5.55943 3.21578 5.10943 2.95796C4.19068 2.42828 4.02662 2.3814 3.8485 2.6064C3.61412 2.90171 3.72193 3.03765 4.59381 3.53921C4.98287 3.76421 5.29693 3.95171 5.29693 3.9564C5.29693 3.97984 2.24068 9.25796 2.20787 9.29078C2.18912 9.30953 1.85162 9.14078 1.45318 8.91109L0.72662 8.4939L0.712558 4.90328C0.70787 2.92984 0.712558 1.31265 0.721933 1.31265C0.735995 1.31265 1.12506 1.53296 1.59381 1.80484C2.06256 2.0814 2.49381 2.32046 2.55475 2.3439C2.69537 2.39546 2.93912 2.32046 3.00006 2.20328C3.06568 2.0814 3.05631 1.86109 2.99068 1.76734C2.88756 1.63609 0.55787 0.328278 0.42662 0.328278C0.360995 0.328278 0.262558 0.356401 0.210995 0.384527ZM23.2876 4.90328L23.2735 8.4939L22.5469 8.91109C21.886 9.29078 21.8157 9.32359 21.7594 9.24859C21.7266 9.2064 21.586 8.96265 21.4454 8.71421C21.1547 8.19859 21.0188 8.10015 20.7657 8.20328C20.4657 8.32515 20.461 8.52671 20.7422 9.0189C20.8594 9.22515 20.9532 9.40328 20.9532 9.41734C20.9532 9.4314 20.7047 9.58609 20.4001 9.75953C19.8563 10.0689 19.8516 10.0689 19.7954 9.97046C19.7626 9.91421 19.1391 8.8314 18.4079 7.57046L17.0813 5.27359L17.6391 4.95484C17.9438 4.77671 18.2016 4.64078 18.211 4.65015C18.2204 4.65953 18.5485 5.22203 18.9376 5.9064C19.8329 7.45796 19.8282 7.45328 20.0672 7.45328C20.2969 7.45328 20.4376 7.32671 20.4376 7.12046C20.4376 7.01265 20.1985 6.55796 19.5985 5.51265C19.1344 4.71109 18.7501 4.02671 18.7407 3.9939C18.7313 3.96109 19.636 3.40796 20.9766 2.62984C22.2141 1.90796 23.2407 1.32203 23.2641 1.31734C23.2829 1.31265 23.2922 2.92984 23.2876 4.90328ZM12.4219 4.64546C12.5344 4.6689 13.0641 4.94078 13.5938 5.25015C14.1235 5.55484 14.6626 5.84078 14.7891 5.88765C15.1313 6.00484 15.8766 6.00484 16.2282 5.87828L16.4907 5.78453L17.5641 7.6314C18.1501 8.65328 18.6516 9.51578 18.6751 9.55796C18.7172 9.62359 18.7079 9.62359 18.6047 9.55796C18.0751 9.22046 15.1829 7.5939 15.1126 7.5939C14.8594 7.5939 14.6813 7.87984 14.7844 8.12359C14.8407 8.25484 15.1266 8.43765 17.0344 9.53453C19.5001 10.9548 19.4719 10.9314 19.4766 11.433C19.4766 11.747 19.3594 11.9439 19.0969 12.0705C18.7547 12.2298 18.6141 12.1783 17.1797 11.3439C16.4579 10.9267 15.8016 10.5752 15.7172 10.5611C15.3985 10.5095 15.1922 10.9689 15.436 11.1892C15.4922 11.2408 16.0454 11.5736 16.6641 11.9298C18.2063 12.8111 18.211 12.8158 18.3235 13.0502C18.4407 13.2845 18.4454 13.4439 18.3563 13.6595C18.2063 14.0205 17.8266 14.208 17.4938 14.0955C17.3907 14.058 16.7157 13.6877 15.9938 13.2705C15.2672 12.8533 14.6297 12.5158 14.5641 12.5158C14.5032 12.5158 14.3954 12.558 14.3251 12.6142C14.161 12.7408 14.1516 13.0173 14.311 13.158C14.3672 13.2095 14.8079 13.4767 15.2907 13.7533C15.7735 14.0298 16.2141 14.3111 16.2657 14.3767C16.6079 14.8127 16.3969 15.4127 15.8532 15.558C15.5907 15.6283 15.4688 15.5814 14.461 15.0002C13.5047 14.4517 13.3501 14.4002 13.1672 14.583C13.0969 14.6533 13.0782 14.7236 13.0876 14.8736C13.1016 15.0845 13.0876 15.0705 13.7626 15.4923C14.0719 15.6845 14.2032 15.8908 14.2032 16.1861C14.2032 16.4908 14.0719 16.697 13.8001 16.833C13.4579 16.997 13.2282 16.9361 12.4829 16.472C12.3844 16.4111 12.3844 16.4017 12.4547 16.1861C12.5626 15.8345 12.5157 15.4033 12.3282 15.0517C12.0141 14.4658 11.3813 14.1752 10.6641 14.297C10.5329 14.3205 10.5235 14.3111 10.4954 14.1236C10.3829 13.4814 9.80631 12.9845 9.13131 12.947L8.81256 12.9283V12.708C8.81256 12.5861 8.77975 12.3892 8.73756 12.2673C8.63912 11.9814 8.28756 11.5923 8.011 11.4658L7.79537 11.3627L7.85631 11.2033C7.88912 11.1142 7.91725 10.8986 7.91725 10.7252C7.92662 10.1064 7.636 9.63765 7.09225 9.36578C6.82037 9.23453 6.73131 9.21109 6.41725 9.21109C6.08443 9.21109 6.0235 9.22984 5.67662 9.40328C5.47037 9.51109 5.31568 9.57203 5.33443 9.53921C5.35318 9.51109 5.85006 8.64859 6.44068 7.6314L7.50943 5.77984L7.78131 5.89234L8.05318 6.00953L7.95475 6.22984C7.81881 6.52515 7.81881 7.05953 7.95943 7.3689C8.2735 8.07671 9.0985 8.4564 9.79693 8.21734C9.93756 8.17046 10.5563 7.84234 11.1657 7.48609C11.7751 7.13453 12.2954 6.8439 12.3235 6.8439C12.3516 6.8439 12.6329 6.98921 12.9516 7.17203C13.2985 7.3689 13.5797 7.50015 13.6641 7.50015C13.9547 7.50015 14.1282 7.12046 13.936 6.90015C13.8141 6.76421 12.7219 6.14546 12.5204 6.09859C12.4219 6.07984 12.2766 6.07046 12.1922 6.08453C12.1079 6.0939 11.4891 6.42203 10.8188 6.8064C10.1485 7.19078 9.52975 7.5189 9.44537 7.53296C9.11725 7.58453 8.74225 7.3314 8.62975 6.97515C8.55475 6.75015 8.63443 6.45484 8.80318 6.28609C8.97193 6.12203 11.3016 4.7814 11.6016 4.67828C11.8688 4.58453 12.1172 4.57515 12.4219 4.64546ZM6.36568 4.95484L6.91881 5.27359L5.59225 7.57046C4.861 8.8314 4.23756 9.91421 4.20475 9.97046C4.1485 10.0689 4.14381 10.0689 3.59537 9.75953C3.29537 9.58609 3.05162 9.42203 3.05631 9.39859C3.07037 9.33765 5.78443 4.64078 5.80318 4.64078C5.80787 4.64078 6.061 4.7814 6.36568 4.95484ZM6.73131 10.0267C7.13443 10.2095 7.28912 10.6923 7.06412 11.072C6.96568 11.2455 6.8485 11.3298 6.29537 11.6486C5.71412 11.9861 5.62506 12.0236 5.40475 12.0236C5.13287 12.0236 4.96881 11.9298 4.79068 11.6673C4.69693 11.5361 4.68287 11.4611 4.69693 11.2455C4.711 11.0814 4.75318 10.9361 4.81412 10.847C4.87037 10.7673 5.17506 10.5611 5.54068 10.3548C6.33287 9.89546 6.40318 9.87671 6.73131 10.0267ZM7.72506 12.1736C8.17506 12.5064 8.17975 13.083 7.72506 13.4158C7.49537 13.5892 7.05475 13.8283 6.88131 13.8798C6.39381 14.0158 5.86881 13.4767 6.00475 12.9705C6.07037 12.7173 6.2485 12.5486 6.72662 12.2814C7.10631 12.0658 7.17193 12.0423 7.3735 12.0611C7.50006 12.0705 7.65475 12.122 7.72506 12.1736ZM9.35631 13.7627C9.661 13.908 9.83912 14.2923 9.75475 14.6158C9.69381 14.8361 9.49693 15.0236 9.05162 15.2861C8.77975 15.4455 8.66256 15.4877 8.48443 15.4877C7.92193 15.4877 7.55162 14.8595 7.83287 14.3908C7.95475 14.1986 8.01568 14.1517 8.47975 13.8892C8.8735 13.6689 9.08912 13.6361 9.35631 13.7627ZM11.4235 15.1455C11.5876 15.2486 11.7657 15.5673 11.7657 15.7642C11.7657 16.0783 11.5501 16.3502 11.1188 16.5705C10.6688 16.8048 10.2094 16.6595 10.0219 16.233C9.8485 15.8439 10.0126 15.483 10.486 15.2064C10.8751 14.9767 11.1235 14.9627 11.4235 15.1455Z" fill="#726758"/>
</g>
</svg>
