<svg width="24" height="24" viewBox="0 0 24 24" fill="none" xmlns="http://www.w3.org/2000/svg">
<g id="Black">
<path id="Vector" d="M20.5458 0.473645C20.3771 0.55802 20.1942 0.773644 19.4161 1.82364C18.9005 2.51271 18.4599 3.11739 18.427 3.17364C18.3989 3.22989 18.3755 3.38458 18.3755 3.52052C18.3755 3.73614 18.3942 3.77833 18.5583 3.94239C18.7411 4.12521 18.7411 4.12521 19.1208 4.12521H19.5005V4.39708C19.5005 5.11427 19.0739 5.83146 18.3895 6.26271C18.2395 6.35646 18.0895 6.46427 18.0614 6.50646C17.9958 6.58614 17.9817 6.88146 18.038 6.97052C18.0567 7.00333 18.4411 7.30333 18.8911 7.64083C19.8333 8.34864 19.8755 8.36271 20.288 8.08614C21.4317 7.31271 22.3224 5.82208 22.4817 4.41114L22.5146 4.12521H22.8802C23.2364 4.12521 23.2599 4.12052 23.4239 3.96583C23.5786 3.82521 23.5974 3.78302 23.6161 3.53458L23.6349 3.25333L22.7864 2.10958C21.7739 0.736145 21.5958 0.525207 21.3942 0.440832C21.1599 0.342394 20.7755 0.356457 20.5458 0.473645ZM21.8724 2.23614C22.3083 2.82208 22.6739 3.31427 22.6786 3.33771C22.688 3.35646 22.5239 3.37521 22.3177 3.37521C21.7692 3.37521 21.7552 3.39396 21.6802 4.27521C21.6005 5.20333 21.0896 6.24396 20.3583 6.96583C19.8942 7.42052 19.9364 7.41583 19.4864 7.07833L19.0974 6.79239L19.4349 6.45021C19.8052 6.07521 20.0958 5.55021 20.2271 5.03927C20.3536 4.53302 20.302 3.53927 20.1427 3.43614C20.1099 3.41739 19.9083 3.38927 19.688 3.37521L19.2849 3.35177L20.0958 2.25958C20.6442 1.52833 20.9396 1.17208 20.9958 1.17208C21.0521 1.17208 21.3427 1.51896 21.8724 2.23614Z" fill="#726758"/>
<path id="Vector_2" d="M11.0158 1.95C10.8986 1.99219 10.7205 2.08125 10.6174 2.15156C10.5143 2.22187 8.79863 3.70781 6.81113 5.45156L3.18769 8.625H2.86894C2.07675 8.625 1.22363 9.1125 0.768942 9.82969C0.67988 9.96094 0.558005 10.2281 0.49238 10.4203L0.375192 10.7766V16.1109C0.375192 22.0312 0.356442 21.6375 0.689255 22.275C0.993942 22.8562 1.61269 23.3484 2.29238 23.55C2.52207 23.6156 3.40332 23.625 11.0627 23.625C18.7221 23.625 19.6033 23.6156 19.833 23.55C20.5127 23.3484 21.1314 22.8562 21.4361 22.275C21.7361 21.7031 21.7502 21.6 21.7502 20.1094V18.7641L22.0361 18.7359C22.6033 18.6844 23.1893 18.2578 23.4658 17.6953L23.6018 17.4141V16.125V14.8359L23.4658 14.5547C23.1893 13.9922 22.6033 13.5656 22.0361 13.5141L21.7502 13.4859V12.1406C21.7502 10.65 21.7361 10.5469 21.4408 9.97969C21.1408 9.40781 20.6018 8.9625 19.9549 8.74219C19.608 8.62969 19.5705 8.625 18.2393 8.625H16.8799L16.8658 7.22812L16.8518 5.83594L16.6971 5.52187C16.5189 5.15625 16.1814 4.82344 15.7971 4.64531C15.5674 4.5375 15.483 4.52344 15.0002 4.52344H14.4611L13.9971 4.74375C13.7439 4.87031 13.533 4.96875 13.5236 4.96875C13.5143 4.96875 13.5002 4.58437 13.4908 4.11094C13.4768 3.2625 13.4768 3.25781 13.3268 2.94375C13.1393 2.54531 12.8299 2.23594 12.4314 2.04844C12.1549 1.91719 12.0611 1.89844 11.6721 1.88906C11.358 1.87969 11.1658 1.89844 11.0158 1.95ZM12.1971 2.84062C12.6564 3.16406 12.7502 3.46406 12.7502 4.64062V5.36719L9.483 6.99844L6.21113 8.62969L5.32988 8.61562L4.44394 8.60156L7.70644 5.74219C9.50175 4.16719 11.058 2.83594 11.1705 2.775C11.4611 2.61562 11.9158 2.64375 12.1971 2.84062ZM15.4455 5.38594C15.5486 5.43281 15.7033 5.54062 15.7877 5.625C16.0783 5.91562 16.0924 5.99062 16.1158 7.36875L16.1346 8.625H12.0893C9.86738 8.625 8.058 8.61562 8.06738 8.60625C8.07675 8.59687 9.58144 7.85156 11.4096 6.94219C14.5924 5.36719 14.7471 5.29688 14.9955 5.29688C15.1455 5.29688 15.3377 5.33437 15.4455 5.38594ZM19.3361 9.42187C19.7814 9.4875 20.1096 9.65156 20.4189 9.95625C20.9158 10.4531 21.0002 10.8094 21.0002 12.4312V13.4953L18.8346 13.5094L16.6643 13.5234L16.4018 13.6547C15.9143 13.8937 15.5861 14.3625 15.4455 15.0328C15.3518 15.4641 15.3518 16.7859 15.4455 17.2172C15.5861 17.8875 15.9143 18.3562 16.4018 18.5953L16.6643 18.7266L18.8346 18.7406L21.0002 18.7547V19.8187C21.0002 21.4406 20.9158 21.7969 20.4189 22.2937C20.1096 22.5984 19.7814 22.7625 19.3361 22.8281C18.8861 22.8891 3.23925 22.8891 2.78925 22.8281C2.34394 22.7625 2.01582 22.5984 1.70644 22.2937C1.40175 21.9844 1.23769 21.6562 1.17207 21.2109C1.11113 20.7656 1.11113 11.4844 1.17207 11.0391C1.23769 10.5937 1.40175 10.2656 1.70644 9.95625C2.00644 9.66094 2.35332 9.48281 2.74707 9.42656C3.15019 9.36562 18.9283 9.36562 19.3361 9.42187ZM22.1721 14.3719C22.4252 14.4891 22.7018 14.7797 22.7861 15.0281C22.833 15.1594 22.8518 15.4688 22.8518 16.125C22.8518 17.1891 22.8096 17.3578 22.4814 17.6625C22.1346 17.9812 22.1955 17.9766 19.4299 17.9766H16.9455L16.7346 17.8594C16.3268 17.6297 16.1721 17.1609 16.1721 16.125C16.1721 14.8922 16.4064 14.4 17.0393 14.2922C17.1424 14.2734 18.2908 14.2641 19.5939 14.2641C21.8908 14.2734 21.9658 14.2781 22.1721 14.3719Z" fill="#726758"/>
<path id="Vector_3" d="M17.775 14.7233C17.2312 14.9342 16.875 15.4874 16.875 16.1249C16.875 16.7342 17.175 17.2311 17.6953 17.4842C18.0328 17.653 18.5812 17.6717 18.9516 17.5311C20.1797 17.0717 20.1844 15.1827 18.9609 14.7233C18.6141 14.5921 18.1172 14.5921 17.775 14.7233ZM18.7406 15.5155C19.35 15.8858 19.0875 16.828 18.375 16.828C17.6625 16.828 17.4 15.8858 18.0094 15.5155C18.2109 15.3936 18.5391 15.3936 18.7406 15.5155Z" fill="#726758"/>
</g>
</svg>
