<svg width="24" height="24" viewBox="0 0 24 24" fill="none" xmlns="http://www.w3.org/2000/svg">
<g id="Black">
<path id="Vector" d="M11.5872 0.0328102C11.5544 0.0468731 11.4982 0.117186 11.456 0.192186C11.3904 0.328123 11.4091 0.449999 11.9013 2.76094C12.1872 4.09687 12.4216 5.2125 12.4216 5.24062C12.4216 5.27812 12.0654 5.29687 11.2779 5.30625C10.1388 5.32031 10.1294 5.32031 10.0122 5.43281L9.89037 5.54531V6.47812V7.41094L10.0122 7.52344C10.1294 7.63125 10.1763 7.64062 10.5982 7.64062H11.0622L11.0669 7.97812C11.0669 8.16562 11.1138 9.32344 11.1747 10.5469C11.2357 11.7703 11.2779 12.7781 11.2732 12.7828C11.2685 12.7922 11.1935 12.7734 11.1044 12.75C10.6216 12.6047 10.0638 12.5625 8.76537 12.5625C7.32162 12.5625 6.91849 12.6047 6.16381 12.8203C4.50443 13.3031 3.09349 14.4516 2.27318 15.9937C1.90287 16.6969 1.64037 17.4937 1.57006 18.1641C1.51849 18.675 1.51849 18.6703 1.25599 18.7922C0.923181 18.9469 0.595056 19.2937 0.468494 19.6266C0.327869 20.0016 0.351306 20.5453 0.524744 20.8828C0.707556 21.2297 1.04037 21.5203 1.40599 21.6516C1.50443 21.6844 1.53724 21.7406 1.58412 21.975C1.77162 22.875 2.56381 23.6859 3.50131 23.9297C3.73568 23.9906 4.94974 24 12.8201 24C22.7341 24 22.0357 24.0187 22.0966 23.7281C22.1107 23.6578 22.2841 20.1187 22.4763 15.8672C22.6732 11.6109 22.8419 8.02031 22.856 7.88437L22.8794 7.64062H23.1372C23.3482 7.64062 23.4138 7.62187 23.5076 7.52344C23.6247 7.41094 23.6247 7.40625 23.6247 6.48281C23.6201 5.48437 23.6107 5.4375 23.3716 5.34375C23.2872 5.31094 21.5951 5.29687 18.2529 5.29687C15.5107 5.29687 13.2654 5.28281 13.2654 5.26406C13.2654 5.19375 12.2294 0.389061 12.1872 0.262499C12.1591 0.187498 12.1029 0.0984364 12.0607 0.0656242C11.9763 0.00468636 11.7044 -0.0140648 11.5872 0.0328102ZM22.8279 6.49219V6.84375H16.7576H10.6872V6.49219V6.14062H16.7576H22.8279V6.49219ZM22.031 7.87031C22.031 8.12344 21.3982 21.8953 21.3466 22.6969L21.3185 23.2031H18.2951H15.2763L15.4404 23.0016C15.6372 22.7625 15.8622 22.2937 15.9513 21.9469C16.0122 21.7078 16.0216 21.6937 16.2935 21.5672C17.1326 21.1734 17.4185 20.1141 16.8935 19.3359L16.7388 19.1016L17.1935 19.0406C18.7872 18.8297 20.0107 17.7891 20.4466 16.2844C20.5872 15.7969 20.6013 14.7281 20.4701 14.25C20.0997 12.9047 18.9747 11.8219 17.6247 11.5078C17.0716 11.3766 16.256 11.3953 15.7357 11.55C14.7091 11.8547 13.8888 12.4969 13.4013 13.3828C13.3169 13.5375 13.2419 13.6734 13.2372 13.6828C13.2279 13.6922 13.0919 13.6172 12.9279 13.5187C12.7638 13.4203 12.5107 13.2797 12.3654 13.2094C12.1029 13.0875 12.0935 13.0734 12.0935 12.9047C12.0935 12.8062 12.0419 11.6391 11.9763 10.3125C11.9107 8.98594 11.8591 7.84219 11.8591 7.76719V7.64062H16.9451H22.031V7.87031ZM17.3997 12.2859C17.5357 12.3141 17.8451 12.4312 18.0841 12.5437C19.0638 13.0125 19.706 13.9781 19.7669 15.0656C19.8466 16.5141 18.8997 17.7984 17.4747 18.1687C17.1466 18.2531 16.4107 18.2672 16.1388 18.1922C15.956 18.1406 15.956 18.1406 15.8997 17.8031C15.7029 16.6641 15.0654 15.4312 14.2169 14.5687C13.9076 14.25 13.9076 14.25 13.9732 14.1C14.3201 13.2422 15.0607 12.5953 16.0076 12.3234C16.3357 12.2297 17.0294 12.2109 17.3997 12.2859ZM10.3591 13.425C12.7451 13.7859 14.6763 15.6609 15.1169 18.0422C15.1544 18.2578 15.1872 18.4828 15.1872 18.5437V18.6562H8.76537H2.34349V18.5203C2.34349 18.4453 2.37631 18.2203 2.41381 18.0187C2.86381 15.6609 4.73881 13.8281 7.11068 13.4297C7.63568 13.3406 9.78256 13.3406 10.3591 13.425ZM15.9232 19.5281C16.1857 19.6547 16.3357 19.8937 16.3357 20.1844C16.3357 20.5828 16.0451 20.8734 15.5951 20.9297C15.4591 20.9437 12.2951 20.9531 8.55443 20.9437C2.01068 20.9297 1.75287 20.925 1.57943 20.8406C1.37318 20.7375 1.17162 20.4281 1.17162 20.2125C1.17162 19.9172 1.34974 19.6359 1.61693 19.5187C1.73412 19.4672 3.02787 19.4578 8.75599 19.4531C15.1544 19.4531 15.7732 19.4578 15.9232 19.5281ZM15.1404 21.8062C15.1404 21.8391 15.0888 21.9797 15.0232 22.1109C14.8872 22.4062 14.5404 22.7906 14.2685 22.95C13.8185 23.2172 14.0247 23.2078 8.66224 23.1937L3.72631 23.1797L3.40287 23.0203C3.22474 22.9312 2.98568 22.7719 2.87787 22.6594C2.68099 22.4672 2.39037 21.9656 2.39037 21.8203C2.39037 21.7594 3.07943 21.75 8.76537 21.75C13.8326 21.75 15.1404 21.7641 15.1404 21.8062Z" fill="#726758"/>
<path id="Vector_2" d="M9.14062 14.8594V15.2812H9.53906H9.9375V14.8594V14.4375H9.53906H9.14062V14.8594Z" fill="#726758"/>
<path id="Vector_3" d="M4.92188 15.2344V15.6562H5.32031H5.71875V15.2344V14.8125H5.32031H4.92188V15.2344Z" fill="#726758"/>
<path id="Vector_4" d="M4.54688 16.7578V17.1562H4.94531H5.34375V16.7578V16.3594H4.94531H4.54688V16.7578Z" fill="#726758"/>
<path id="Vector_5" d="M11.3906 16.7578V17.1562H11.8125H12.2344V16.7578V16.3594H11.8125H11.3906V16.7578Z" fill="#726758"/>
<path id="Vector_6" d="M7.96875 17.1328V17.5312H8.36719H8.76563V17.1328V16.7344H8.36719H7.96875V17.1328Z" fill="#726758"/>
</g>
</svg>
