<svg width="24" height="22" viewBox="0 0 24 22" fill="none" xmlns="http://www.w3.org/2000/svg">
<g id="Black">
<path id="Vector" d="M11.7797 0.312493C11.6156 0.378118 0.328125 8.64687 0.15 8.82499C0.0234375 8.96093 0 9.01718 0 9.21874C0 9.34999 0.0328125 9.51874 0.0703125 9.59374C0.215625 9.87031 0.69375 9.98281 0.970313 9.80468C1.04063 9.75781 3.50625 7.95781 6.44531 5.80156C9.38438 3.64999 11.8406 1.85937 11.9062 1.82187C12.0234 1.75624 12.1359 1.83593 17.4609 5.73593C20.4516 7.92499 22.9594 9.75781 23.0344 9.80468C23.1984 9.91249 23.5078 9.91718 23.7047 9.80937C23.9016 9.71093 24 9.51406 24 9.21874C24 9.01718 23.9766 8.96093 23.85 8.82499C23.6531 8.62343 12.3797 0.378118 12.2109 0.312493C12.0609 0.256243 11.9203 0.256243 11.7797 0.312493Z" fill="#726758"/>
<path id="Vector_2" d="M2.95781 9.95943C2.86875 10.0063 2.75625 10.1188 2.70938 10.2079C2.62969 10.3579 2.625 10.6251 2.625 15.8047C2.625 21.111 2.62969 21.2469 2.71875 21.3922C2.925 21.7297 2.68594 21.711 6.39844 21.711C10.1063 21.711 9.88125 21.7297 10.0641 21.3922C10.1438 21.2563 10.1484 20.9844 10.1719 17.8907L10.1953 14.5391L10.3313 14.2579C10.5094 13.8969 10.8656 13.5407 11.2266 13.3626C11.4844 13.2407 11.55 13.2266 12 13.2266C12.45 13.2266 12.5156 13.2407 12.7734 13.3626C13.1344 13.5407 13.4906 13.8969 13.6688 14.2579L13.8047 14.5391L13.8281 17.8907C13.8516 20.9844 13.8563 21.2563 13.9359 21.3922C14.1188 21.7297 13.8938 21.711 17.6016 21.711C21.3141 21.711 21.075 21.7297 21.2812 21.3922C21.3703 21.2469 21.375 21.111 21.375 15.8047C21.375 10.6251 21.3703 10.3579 21.2906 10.2079C21.1922 10.0204 20.9484 9.87506 20.7422 9.87506C20.5547 9.87506 20.3016 10.0063 20.1844 10.1704C20.0859 10.3016 20.0859 10.3297 20.0719 15.3641L20.0625 20.4219H17.6016H15.1406V17.586C15.1406 14.3797 15.1359 14.3188 14.8031 13.6251C14.6484 13.3016 14.5359 13.1516 14.2078 12.8235C13.8797 12.4954 13.7297 12.3829 13.4062 12.2282C12.9656 12.0172 12.4359 11.8907 12 11.8907C11.5641 11.8907 11.0344 12.0172 10.5938 12.2282C10.2703 12.3829 10.1203 12.4954 9.79219 12.8235C9.46406 13.1516 9.35156 13.3016 9.19688 13.6251C8.85938 14.3376 8.85938 14.3422 8.85938 17.5579V20.4219H6.39844H3.9375L3.92813 15.3641C3.91406 10.3297 3.91406 10.3016 3.81563 10.1704C3.61406 9.89381 3.24844 9.80474 2.95781 9.95943Z" fill="#726758"/>
</g>
</svg>
