<svg width="24" height="24" viewBox="0 0 24 24" fill="none" xmlns="http://www.w3.org/2000/svg">
<g id="Black">
<path id="Vector" d="M11.1937 0.112347C10.8046 0.248283 10.3593 0.557659 10.1203 0.857658C10.0218 0.984221 9.93745 1.1061 9.93745 1.12485C9.93745 1.1436 9.67963 1.16703 9.36557 1.1811C8.8687 1.19516 8.75151 1.2186 8.52651 1.32172C8.20307 1.47172 7.92182 1.73891 7.74838 2.07172C7.6312 2.29203 7.61713 2.37172 7.61713 2.76547C7.61713 3.19203 7.64057 3.28578 8.12338 4.98735C8.40463 5.96235 8.6437 6.78735 8.65307 6.81547C8.66713 6.84828 8.58276 6.93735 8.47026 7.01703C7.95932 7.38735 7.82807 8.14203 8.18432 8.69047C8.24995 8.78891 8.28745 8.88266 8.26401 8.90141C7.1062 9.86235 6.44057 10.5702 5.77026 11.5733C5.10932 12.5577 4.49057 13.9217 4.2187 14.9858L4.16713 15.1873H2.54057C0.937447 15.1873 0.909322 15.192 0.679635 15.2998C0.417135 15.417 0.178072 15.6655 0.0702595 15.9233C-0.0469279 16.1952 -0.0234904 16.6733 0.121822 16.9592L0.243697 17.203L0.121822 17.4467C-0.0469279 17.7889 -0.0469279 18.2108 0.121822 18.553L0.243697 18.7967L0.121822 19.0405C-0.11724 19.5186 -0.0141155 20.1561 0.356197 20.4795L0.510885 20.6202L0.44526 20.817C0.356197 21.0608 0.360885 21.342 0.44526 21.5811C0.510885 21.7686 0.510885 21.7686 0.342135 21.9327C0.103072 22.167 -5.2942e-05 22.4155 -5.2942e-05 22.7952C-5.2942e-05 23.1748 0.084322 23.3952 0.318697 23.6436C0.679635 24.0186 0.431197 23.9998 4.38276 23.9998H7.89838L8.13745 23.8873C8.2687 23.8264 8.44213 23.6905 8.53588 23.5827L8.69995 23.3858L8.9437 23.4795C9.32807 23.6342 10.1953 23.8498 10.739 23.9295C11.1703 23.9905 12.0843 23.9998 17.3531 23.9998H23.4703L23.6296 23.892C23.714 23.8358 23.8359 23.7139 23.8921 23.6295L23.9999 23.4702V19.5936V15.717L23.8968 15.5623C23.8359 15.478 23.7281 15.3608 23.6578 15.3092C23.5265 15.2155 23.4656 15.2108 21.6796 15.1967L19.8328 15.1827L19.7812 14.9858C19.5656 14.128 19.0546 12.9186 18.5812 12.1217C17.8312 10.8702 17.0578 9.99828 15.7359 8.90141C15.7124 8.88266 15.7499 8.78891 15.8156 8.69047C16.1718 8.14203 16.0406 7.38735 15.5296 7.01703C15.4171 6.93735 15.3328 6.84828 15.3468 6.81547C15.3562 6.78735 15.5953 5.96235 15.8765 4.98735C16.3593 3.28578 16.3828 3.19203 16.3828 2.76547C16.3828 2.37172 16.3687 2.29203 16.2515 2.07172C16.0781 1.73891 15.7968 1.47172 15.4734 1.32172C15.2484 1.2186 15.1312 1.19516 14.639 1.1811C14.3203 1.16703 14.0624 1.1436 14.0624 1.12485C14.0624 1.0311 13.664 0.604534 13.4062 0.426409C12.9609 0.112347 12.5906 -0.000154495 11.9999 -0.000154495C11.6015 -0.000154495 11.4468 0.023283 11.1937 0.112347ZM12.6421 0.979534C13.1343 1.21391 13.4437 1.61703 13.5468 2.15141C13.5703 2.29203 13.5937 2.80297 13.5937 3.29047C13.5937 4.16703 13.5937 4.17641 13.7109 4.28891C13.8703 4.45297 14.1468 4.44828 14.3015 4.28422C14.414 4.16235 14.414 4.16235 14.414 3.08891V2.01547H14.6671C15.1593 2.01547 15.5624 2.35297 15.5624 2.77016C15.5624 2.85922 15.3187 3.79203 15.0234 4.84203C14.7281 5.88735 14.4843 6.75922 14.4843 6.77328C14.4843 6.78735 13.3687 6.79672 11.9999 6.79672C10.6359 6.79672 9.51557 6.78735 9.51557 6.77328C9.51557 6.75922 9.27182 5.88735 8.97651 4.84203C8.6812 3.79203 8.43745 2.85922 8.43745 2.77016C8.44213 2.34828 8.83588 2.01547 9.32338 2.01547H9.58588L9.57182 3.06078L9.55307 4.11078L9.67963 4.2561C9.77807 4.37797 9.83901 4.4061 9.98432 4.4061C10.0874 4.4061 10.2046 4.3686 10.2703 4.31703C10.3828 4.22797 10.3828 4.20922 10.4109 3.15453C10.4296 2.33891 10.4578 2.03891 10.514 1.88422C10.7624 1.23735 11.3109 0.85297 11.9999 0.848284C12.2953 0.843596 12.3984 0.867033 12.6421 0.979534ZM14.9953 7.68735C15.1406 7.76235 15.2062 7.98735 15.1312 8.13735C15.0093 8.39516 15.0609 8.39047 11.9999 8.39047C8.93901 8.39047 8.99057 8.39516 8.8687 8.13735C8.7937 7.99203 8.85932 7.76703 8.99526 7.68735C9.09838 7.62641 14.8828 7.62641 14.9953 7.68735ZM15.0515 9.47328C16.6593 10.5795 18.1499 12.6467 18.8015 14.667C19.0781 15.5342 19.1437 15.9327 19.1437 16.8045C19.1484 17.5264 19.1343 17.6483 19.0171 18.103C18.7265 19.228 18.2578 20.067 17.4609 20.9014C16.4343 21.9748 15.1265 22.6827 13.5703 23.0155C12.9796 23.142 11.6578 23.1936 11.039 23.1139C10.4765 23.0436 9.72651 22.8561 9.2062 22.6545C8.85932 22.5233 8.77495 22.4717 8.73276 22.3686C8.69526 22.2561 8.70932 22.2186 8.88745 22.0264C9.08432 21.8061 9.23432 21.4498 9.23432 21.1873C9.23432 20.9202 9.08901 20.578 8.89213 20.3717C8.70463 20.1748 8.69526 20.1608 8.75151 20.0108C8.8687 19.6733 8.81245 19.2092 8.61088 18.9233C8.52651 18.8014 8.52651 18.7873 8.60151 18.703C8.87338 18.403 8.87338 17.5967 8.60151 17.2967C8.52651 17.2123 8.52651 17.1983 8.61557 17.0764C8.95307 16.5889 8.83588 15.8014 8.36713 15.4405C8.05776 15.2061 7.95463 15.192 6.45932 15.1873C5.61088 15.1873 5.06245 15.1686 5.06245 15.1452C5.06245 15.0373 5.32495 14.2873 5.50776 13.8514C6.2437 12.1405 7.54682 10.467 8.87807 9.52485L9.29526 9.23422H11.9953H14.6999L15.0515 9.47328ZM7.85151 16.1483C8.05776 16.3498 7.95463 16.6873 7.67338 16.7577C7.61713 16.7717 6.09838 16.7764 4.29838 16.7717L1.02182 16.7577L0.932759 16.6452C0.801509 16.4811 0.815572 16.2467 0.965572 16.1295C1.08745 16.0311 1.12495 16.0311 4.41557 16.0311H7.73901L7.85151 16.1483ZM21.2578 16.2045C21.3937 16.9405 22.2703 17.8217 22.9781 17.9342L23.1562 17.967V19.5936V21.2248L22.9968 21.253C22.6921 21.3092 22.1671 21.6139 21.8906 21.8905C21.614 22.167 21.3093 22.692 21.2531 22.9967L21.2249 23.1561H18.5203H15.8203L16.1624 22.9686C18.1265 21.8998 19.4578 20.1514 19.9078 18.0467C19.9687 17.7514 19.9921 17.442 19.9921 16.842V16.0311H20.6062H21.2249L21.2578 16.2045ZM23.1562 16.5702V17.1092L22.9828 17.0389C22.7203 16.9264 22.4156 16.6545 22.2656 16.392C22.1859 16.2561 22.1249 16.1202 22.1249 16.0873C22.1249 16.0452 22.2609 16.0311 22.6406 16.0311H23.1562V16.5702ZM7.85151 17.742C7.92651 17.8123 7.9687 17.9108 7.9687 17.9998C7.9687 18.0889 7.92651 18.1873 7.85151 18.2577L7.73901 18.3748H4.4062H1.07338L0.960885 18.2577C0.885885 18.1873 0.843697 18.0889 0.843697 17.9998C0.843697 17.9108 0.885885 17.8123 0.960885 17.742L1.07338 17.6248H4.4062H7.73901L7.85151 17.742ZM7.74838 19.2748C7.99213 19.4014 8.03901 19.6639 7.85151 19.8514L7.73901 19.9686H4.41557C1.12495 19.9686 1.08745 19.9686 0.965572 19.8702C0.768697 19.7155 0.815572 19.3592 1.04526 19.2655C1.20932 19.1998 7.62651 19.2092 7.74838 19.2748ZM8.24526 20.9295C8.40463 21.0889 8.41401 21.2483 8.27338 21.4123L8.14682 21.5623H4.80463C1.69213 21.5623 1.45776 21.5577 1.36401 21.478C1.31245 21.4358 1.25151 21.3327 1.23745 21.2483C1.21401 21.1217 1.23276 21.0748 1.34995 20.953L1.49526 20.8123L4.82338 20.8217C8.0812 20.8358 8.1562 20.8358 8.24526 20.9295ZM23.1562 22.6405V23.1561H22.6406C22.3171 23.1561 22.1249 23.1373 22.1249 23.1092C22.1249 22.8936 22.5468 22.3873 22.8609 22.2233C23.1562 22.0686 23.1562 22.0686 23.1562 22.6405ZM7.8562 22.5608C7.99213 22.7202 8.00151 22.8702 7.87026 23.0342L7.77651 23.1561H4.41557H1.05932L0.951509 23.053C0.768697 22.8795 0.815572 22.5889 1.05463 22.4577C1.12026 22.4248 2.10932 22.4108 4.4437 22.4202L7.7437 22.4295L7.8562 22.5608Z" fill="#726758"/>
<path id="Vector_2" d="M11.6949 12.117C11.6293 12.1779 11.5777 12.2717 11.5777 12.3232C11.5777 12.3889 11.5356 12.4311 11.4512 12.4498C11.2543 12.4967 10.8231 12.7311 10.659 12.8764C9.96994 13.4857 9.78712 14.5264 10.2184 15.3701C10.3731 15.6795 10.7762 16.0592 11.1184 16.2186C11.2824 16.2982 11.4512 16.3592 11.4981 16.3592C11.5731 16.3592 11.5777 16.4436 11.5777 17.5076C11.5777 18.4264 11.5637 18.6561 11.5168 18.6561C11.4137 18.6561 11.0621 18.3279 10.9684 18.1404C10.9168 18.042 10.8559 17.8357 10.8324 17.6764C10.7762 17.3295 10.7621 17.3014 10.5746 17.2264C10.3824 17.1467 10.1902 17.1842 10.0731 17.3389C9.984 17.4467 9.97462 17.5029 9.99806 17.8076C10.0356 18.2811 10.2606 18.7451 10.6168 19.0686C10.8652 19.2982 11.3059 19.5467 11.4559 19.5467C11.4981 19.5467 11.5637 19.6217 11.6012 19.7154C11.6902 19.9357 11.7934 20.0107 11.9996 20.0107C12.2059 20.0107 12.309 19.9357 12.3981 19.7154C12.4402 19.6217 12.5012 19.5467 12.5434 19.5467C12.5856 19.5467 12.7496 19.4857 12.909 19.4061C13.284 19.2279 13.6449 18.8529 13.8418 18.4357C13.9824 18.1357 13.9918 18.0842 13.9918 17.6014C13.9918 17.1186 13.9824 17.067 13.8418 16.7717C13.5934 16.242 13.134 15.8248 12.6418 15.6795L12.4449 15.6232L12.4309 14.4654L12.4215 13.3076L12.5481 13.3779C12.8621 13.542 13.1668 14.0154 13.1715 14.3342C13.1715 14.6389 13.3309 14.8076 13.6074 14.8123C13.884 14.8123 14.0152 14.6529 14.0152 14.3201C14.0152 14.0295 13.8793 13.5795 13.7152 13.3217C13.4715 12.942 12.9934 12.5764 12.5996 12.4686C12.4684 12.4311 12.4215 12.3936 12.4215 12.3232C12.4215 12.1592 12.2152 11.9998 11.9996 11.9998C11.859 11.9998 11.7793 12.0279 11.6949 12.117ZM11.5777 14.3904C11.5777 15.0186 11.559 15.4686 11.5356 15.4686C11.4277 15.4686 11.0809 15.1404 10.9777 14.9436C10.7527 14.5029 10.7949 14.0389 11.0996 13.6826C11.2356 13.5279 11.5027 13.3123 11.5684 13.3123C11.5731 13.3123 11.5777 13.7951 11.5777 14.3904ZM12.8106 16.7764C13.0449 16.992 13.1434 17.2357 13.1434 17.6014C13.1434 17.8498 13.1199 17.9764 13.0449 18.1217C12.9371 18.3279 12.5902 18.6561 12.4824 18.6561C12.4356 18.6561 12.4215 18.4404 12.4215 17.5732V16.4904L12.5527 16.5701C12.6231 16.617 12.7402 16.7061 12.8106 16.7764Z" fill="#726758"/>
<path id="Vector_3" d="M21.2294 18.4359C20.9669 18.5344 20.7512 18.6844 20.6341 18.8437C20.3622 19.2094 20.3106 19.7437 20.5122 20.1469C20.7372 20.6016 21.145 20.8359 21.6512 20.8031C22.1387 20.775 22.4716 20.5594 22.7012 20.1328C22.8325 19.8844 22.8419 19.3219 22.7153 19.0781C22.5981 18.8484 22.3684 18.6187 22.1481 18.5062C21.9184 18.3844 21.4591 18.3516 21.2294 18.4359ZM21.8481 19.3547C21.9934 19.5047 22.0122 19.5891 21.9278 19.7484C21.8012 19.9922 21.5387 20.0391 21.3512 19.8516C21.1637 19.6687 21.2059 19.4016 21.445 19.275C21.5997 19.1906 21.7028 19.2094 21.8481 19.3547Z" fill="#726758"/>
</g>
</svg>
