<svg width="24" height="24" viewBox="0 0 24 24" fill="none" xmlns="http://www.w3.org/2000/svg">
<g id="Black">
<path id="Vector" d="M4.83315 0.473588C2.73784 0.914213 1.08784 2.4939 0.530026 4.5939C0.351901 5.25015 0.323776 6.42671 0.469088 7.12046C0.928463 9.36577 2.63471 11.072 4.88003 11.5314C5.57378 11.6767 6.75034 11.6486 7.40659 11.4705C9.52065 10.9126 11.1003 9.24859 11.5269 7.13921C11.6488 6.55328 11.6581 5.59702 11.555 4.98765C11.1519 2.69546 9.30503 0.848588 7.01284 0.445463C6.41753 0.342339 5.39096 0.356401 4.83315 0.473588ZM6.94253 1.24234C7.23315 1.29859 7.84721 1.50953 8.12378 1.65015C9.38471 2.27828 10.2378 3.30484 10.6738 4.71578C10.791 5.10484 10.8003 5.18921 10.8003 6.00015C10.8003 6.81109 10.791 6.89546 10.6738 7.28921C9.78315 10.2095 6.67534 11.6392 3.95659 10.383C2.69565 9.80171 1.75815 8.69546 1.3269 7.28921C1.20971 6.89546 1.20034 6.81109 1.20034 6.00015C1.20034 5.18921 1.20971 5.10484 1.3269 4.71578C1.8519 3.01421 3.04721 1.82359 4.71596 1.33609C5.3394 1.15328 6.30503 1.11109 6.94253 1.24234Z" fill="#726758"/>
<path id="Vector_2" d="M6.23483 3.45013C4.76295 3.70325 4.46295 3.76888 4.37389 3.85325C4.26608 3.95169 4.26608 3.95638 4.26608 5.47044V6.9845H4.02233C3.33795 6.9845 2.82233 7.38294 2.77545 7.94075C2.73795 8.38138 3.0567 8.79856 3.51608 8.90638C3.96608 9.01419 4.58014 8.81263 4.83795 8.47513C5.05358 8.1845 5.06295 8.10481 5.06295 6.22981C5.06295 5.25013 5.07702 4.45325 5.09108 4.45325C5.10514 4.45325 5.6817 4.3595 6.37545 4.24231C7.0692 4.12513 7.64577 4.03138 7.65983 4.03138C7.67389 4.03138 7.68795 4.57044 7.68795 5.22669V6.422H7.41139C6.88639 6.422 6.5067 6.64231 6.30045 7.0595C6.14577 7.38294 6.15983 7.65481 6.36139 7.94075C6.54889 8.21263 6.83014 8.34388 7.22389 8.34388C7.76295 8.34388 8.19889 8.1095 8.38639 7.72044C8.48014 7.52356 8.48483 7.44856 8.48483 5.47044V3.42669L8.3817 3.3095C8.32077 3.23919 8.21295 3.17825 8.13327 3.16888C8.05827 3.15481 7.20045 3.28606 6.23483 3.45013ZM7.64108 7.26575C7.70202 7.30794 7.69264 7.33138 7.58014 7.42981C7.43952 7.55169 7.16764 7.58919 7.0317 7.50013C6.97077 7.45794 6.98014 7.4345 7.09264 7.33606C7.23327 7.21419 7.50514 7.17669 7.64108 7.26575ZM4.21452 7.84231C4.32702 7.98294 3.90983 8.19856 3.68952 8.11419C3.53014 8.05325 3.53014 8.00169 3.68483 7.87981C3.83014 7.76731 4.13483 7.74856 4.21452 7.84231Z" fill="#726758"/>
<path id="Vector_3" d="M16.8332 0.473588C14.7378 0.914213 13.0878 2.4939 12.53 4.5939C12.3519 5.25015 12.3238 6.42671 12.4691 7.12046C12.9285 9.36577 14.6347 11.072 16.88 11.5314C17.5738 11.6767 18.7503 11.6486 19.4066 11.4705C21.5207 10.9126 23.1003 9.24859 23.5269 7.13921C23.6488 6.55328 23.6581 5.59702 23.555 4.98765C23.1519 2.69546 21.305 0.848588 19.0128 0.445463C18.4175 0.342339 17.391 0.356401 16.8332 0.473588ZM18.9425 1.24234C19.2332 1.29859 19.8472 1.50953 20.1238 1.65015C21.3847 2.27828 22.2378 3.30484 22.6738 4.71578C22.791 5.10484 22.8003 5.18921 22.8003 6.00015C22.8003 6.81109 22.791 6.89546 22.6738 7.28921C21.7831 10.2095 18.6753 11.6392 15.9566 10.383C14.6957 9.80171 13.7582 8.69546 13.3269 7.28921C13.2097 6.89546 13.2003 6.81109 13.2003 6.00015C13.2003 5.18921 13.2097 5.10484 13.3269 4.71578C13.8519 3.01421 15.0472 1.82359 16.716 1.33609C17.3394 1.15328 18.305 1.11109 18.9425 1.24234Z" fill="#726758"/>
<path id="Vector_4" d="M16.2188 3.46907C16.1297 3.55813 16.125 3.62375 16.125 6.00032C16.125 8.37688 16.1297 8.4425 16.2188 8.53157C16.4156 8.72844 16.5141 8.68625 18.9797 7.45813C20.2828 6.80188 21.3281 6.25344 21.3469 6.21125C21.3609 6.16907 21.375 6.07532 21.375 6.00032C21.375 5.92532 21.3609 5.83157 21.3469 5.78938C21.3281 5.74719 20.2828 5.19875 18.9797 4.5425C16.5141 3.31438 16.4156 3.27219 16.2188 3.46907ZM18.4922 5.18938C19.3547 5.62532 20.0625 5.98625 20.0625 6.00032C20.0625 6.02375 16.9453 7.59407 16.8984 7.59407C16.8844 7.59407 16.875 6.87688 16.875 6.00032C16.875 5.12375 16.8844 4.40657 16.8984 4.40657C16.9125 4.40657 17.6297 4.75813 18.4922 5.18938Z" fill="#726758"/>
<path id="Vector_5" d="M4.83315 12.4736C2.73784 12.9142 1.08784 14.4939 0.530026 16.5939C0.351901 17.2502 0.323776 18.4267 0.469088 19.1205C0.928463 21.3658 2.63471 23.072 4.88003 23.5314C5.57378 23.6767 6.75034 23.6486 7.40659 23.4705C9.52065 22.9126 11.1003 21.2486 11.5269 19.1392C11.6488 18.5533 11.6581 17.597 11.555 16.9876C11.1519 14.6955 9.30503 12.8486 7.01284 12.4455C6.41753 12.3423 5.39096 12.3564 4.83315 12.4736ZM6.94253 13.2423C7.23315 13.2986 7.84721 13.5095 8.12378 13.6502C9.38471 14.2783 10.2378 15.3048 10.6738 16.7158C10.791 17.1048 10.8003 17.1892 10.8003 18.0002C10.8003 18.8111 10.791 18.8955 10.6738 19.2892C9.78315 22.2095 6.67534 23.6392 3.95659 22.383C2.69565 21.8017 1.75815 20.6955 1.3269 19.2892C1.20971 18.8955 1.20034 18.8111 1.20034 18.0002C1.20034 17.1892 1.20971 17.1048 1.3269 16.7158C1.8519 15.0142 3.04721 13.8236 4.71596 13.3361C5.3394 13.1533 6.30503 13.1111 6.94253 13.2423Z" fill="#726758"/>
<path id="Vector_6" d="M6.38928 15.1031C6.33772 15.1641 6.09865 15.6187 5.85959 16.1109L5.42365 17.0156L5.2174 16.65C4.97834 16.2234 4.87053 16.125 4.66428 16.125C4.5799 16.125 4.4674 16.1625 4.41584 16.2047C4.35959 16.2516 3.93772 16.9781 3.47365 17.8172C2.56897 19.4484 2.5174 19.5797 2.71897 19.7812C2.81272 19.875 2.87365 19.875 6.00022 19.875C9.12678 19.875 9.18772 19.875 9.28147 19.7812C9.4924 19.5703 9.4549 19.4812 8.19865 17.25C7.54709 16.1016 6.98459 15.1266 6.94709 15.0797C6.83928 14.9578 6.51115 14.9719 6.38928 15.1031ZM7.51897 17.7094C7.95022 18.4594 8.29709 19.0875 8.29709 19.1016C8.29709 19.1156 7.26584 19.125 6.00022 19.125C4.73928 19.125 3.70334 19.1109 3.70334 19.0969C3.70334 19.0734 4.63147 17.3906 4.66428 17.3531C4.66897 17.3438 4.7674 17.5031 4.87522 17.7047C5.1424 18.2016 5.22678 18.2812 5.44709 18.2812C5.5549 18.2812 5.65803 18.2484 5.70959 18.1969C5.75178 18.1547 5.99084 17.7 6.23459 17.1937C6.47834 16.6875 6.69397 16.2844 6.71272 16.3031C6.73147 16.3219 7.0924 16.9547 7.51897 17.7094Z" fill="#726758"/>
<path id="Vector_7" d="M16.8332 12.4736C14.7378 12.9142 13.0878 14.4939 12.53 16.5939C12.3519 17.2502 12.3238 18.4267 12.4691 19.1205C12.9285 21.3658 14.6347 23.072 16.88 23.5314C17.5738 23.6767 18.7503 23.6486 19.4066 23.4705C21.5207 22.9126 23.1003 21.2486 23.5269 19.1392C23.6488 18.5533 23.6581 17.597 23.555 16.9876C23.1519 14.6955 21.305 12.8486 19.0128 12.4455C18.4175 12.3423 17.391 12.3564 16.8332 12.4736ZM18.9425 13.2423C19.2332 13.2986 19.8472 13.5095 20.1238 13.6502C21.3847 14.2783 22.2378 15.3048 22.6738 16.7158C22.791 17.1048 22.8003 17.1892 22.8003 18.0002C22.8003 18.8111 22.791 18.8955 22.6738 19.2892C21.7831 22.2095 18.6753 23.6392 15.9566 22.383C14.6957 21.8017 13.7582 20.6955 13.3269 19.2892C13.2097 18.8955 13.2003 18.8111 13.2003 18.0002C13.2003 17.1892 13.2097 17.1048 13.3269 16.7158C13.8519 15.0142 15.0472 13.8236 16.716 13.3361C17.3394 13.1533 18.305 13.1111 18.9425 13.2423Z" fill="#151515"/>
<path id="Vector_8" d="M15.4688 15.4688C15.3891 15.5484 15.375 15.6234 15.375 16.0312V16.5H15.75H16.125V16.3125V16.125H16.875H17.625V18.1875V20.25H17.25H16.875V20.625V21H18H19.125V20.625V20.25H18.75H18.375V18.1875V16.125H19.125H19.875V16.3125V16.5H20.25H20.625V16.0312C20.625 15.3047 20.9016 15.375 18 15.375C15.6234 15.375 15.5578 15.3797 15.4688 15.4688Z" fill="#151515"/>
</g>
</svg>
