<svg width="22" height="22" viewBox="0 0 22 22" fill="none" xmlns="http://www.w3.org/2000/svg">
<g id="Black">
<path id="Vector" d="M9.89844 0.528028C8.80625 0.678028 8.03281 0.865528 7.25 1.17022C5.81094 1.72803 4.66719 2.46865 3.57031 3.57022C1.97656 5.15928 1.03438 6.9874 0.6125 9.28897C0.485937 9.96397 0.485937 12.0358 0.6125 12.7108C0.940625 14.4968 1.57344 15.964 2.62344 17.3702C3.05469 17.9468 4.05313 18.9452 4.62969 19.3765C6.13906 20.5062 7.79375 21.1858 9.64062 21.4343C10.2734 21.5187 11.7266 21.5187 12.3594 21.4343C14.225 21.1812 15.9688 20.4593 17.4172 19.3437C17.8953 18.9733 18.0031 18.814 18.0031 18.4765C18.0031 18.0733 17.7594 17.7921 17.3469 17.7218C17.0938 17.6843 16.9156 17.764 16.4141 18.1437C14.7969 19.3624 13.0156 19.9577 10.9719 19.9577C9.54688 19.9577 8.37969 19.6858 7.08594 19.0624C4.71406 17.9187 2.9375 15.739 2.30469 13.203C1.95312 11.8062 1.95312 10.189 2.30938 8.78272C2.9375 6.25615 4.71406 4.08115 7.08594 2.9374C8.38906 2.30459 9.55625 2.04209 11.0281 2.04209C12.4766 2.04209 13.7938 2.35615 15.05 2.99834C16.8172 3.90303 18.2094 5.31865 19.0625 7.08584C19.6953 8.39365 19.9531 9.5374 19.9531 11.0046C19.9484 12.4202 19.7047 13.5593 19.1234 14.7968C18.8281 15.4296 18.8469 15.7905 19.1844 16.0577C19.4844 16.2921 19.8641 16.2921 20.1641 16.053C20.4219 15.8515 20.9281 14.6515 21.1953 13.6015C21.4391 12.6405 21.5141 11.914 21.4859 10.7233C21.4578 9.3499 21.2703 8.36553 20.825 7.23115C20.2625 5.79209 19.5219 4.6624 18.4297 3.57022C16.8453 1.98584 15.0031 1.02959 12.7344 0.61709C12.4109 0.556154 11.9797 0.532717 11.1641 0.52334C10.5453 0.513966 9.97813 0.518654 9.89844 0.528028Z" fill="#726758"/>
<path id="Vector_2" d="M5.85773 9.9874C5.28117 10.1702 4.98586 10.7374 5.15461 11.3327C5.29054 11.7968 5.69367 12.0874 6.19992 12.0874C6.83273 12.0827 7.24992 11.6515 7.24992 10.9999C7.24992 10.653 7.14211 10.4187 6.87492 10.189C6.58429 9.94053 6.23273 9.87021 5.85773 9.9874Z" fill="#726758"/>
<path id="Vector_3" d="M10.6528 9.98724C10.2075 10.156 9.96371 10.4701 9.93559 10.9388C9.91684 11.2201 9.9309 11.2857 10.0481 11.5154C10.2731 11.9513 10.7184 12.1622 11.2246 12.0732C12.0028 11.9279 12.345 10.9435 11.834 10.3201C11.5621 9.99193 11.0371 9.84662 10.6528 9.98724Z" fill="#726758"/>
<path id="Vector_4" d="M15.491 9.97803C15.2706 10.0343 14.9613 10.3015 14.8441 10.5358C14.7269 10.7562 14.7175 11.2108 14.8253 11.4593C14.9894 11.853 15.3503 12.0827 15.8003 12.0874C16.3066 12.0874 16.7097 11.7968 16.8456 11.3327C17.0191 10.728 16.7191 10.1655 16.1238 9.9874C15.88 9.9124 15.7394 9.9124 15.491 9.97803Z" fill="#726758"/>
</g>
</svg>
