<svg width="22" height="24" viewBox="0 0 22 24" fill="none" xmlns="http://www.w3.org/2000/svg">
<g id="Black">
<path id="Vector" d="M10.1141 0.09375C9.41094 0.28125 8.67969 0.754686 8.3 1.25625L8.13594 1.48125L5.82969 1.75312C4.55938 1.90312 3.48125 2.04844 3.42969 2.07656C3.28438 2.15156 3.22344 2.25937 3.21875 2.42812C3.21875 2.57812 3.47188 4.84687 3.51875 5.11406C3.54219 5.23125 3.53281 5.24062 3.3125 5.25937C3.18594 5.27344 3.05 5.31094 3.00781 5.34375C2.96563 5.37656 2.64219 5.89219 2.28125 6.49219L1.62969 7.57969L1.22656 15.3609C1.00625 19.6406 0.828125 23.2922 0.828125 23.4703C0.828125 23.7516 0.842188 23.8125 0.935938 23.8969L1.04375 24H11.0047H20.9703L21.0688 23.8922C21.1531 23.8031 21.1719 23.7281 21.1719 23.4609C21.1719 23.2875 20.9938 19.6406 20.7734 15.3609L20.3703 7.57969L19.7188 6.49219C19.3578 5.89219 19.0297 5.37656 18.9875 5.33906C18.9359 5.29688 18.7578 5.26875 18.4906 5.25469C18.0875 5.24062 18.0688 5.23594 18.0969 5.1375C18.1109 5.08594 18.1813 4.79062 18.2516 4.49062C18.3875 3.89062 18.3734 3.77812 18.1625 3.6375C18.1016 3.6 17.2719 3.38437 16.3203 3.16406C15.3641 2.94375 14.5391 2.74219 14.4875 2.72344C14.4219 2.69531 14.375 2.62031 14.3563 2.5125C14.3047 2.23125 13.925 1.5375 13.6391 1.19531C13.2828 0.768749 12.6594 0.346874 12.1203 0.164062C11.7781 0.046875 11.6422 0.0281239 11.0938 0.014061C10.5734 0.00468636 10.4 0.0187492 10.1141 0.09375ZM11.6047 0.918749C12.2563 1.07812 12.9125 1.575 13.2594 2.16094C13.3578 2.32031 13.4281 2.46094 13.4188 2.47031C13.4094 2.47969 13.1797 2.43281 12.9031 2.36719C12.3734 2.23594 12.1906 2.24062 12.0594 2.38594C12.0219 2.42812 11.9 2.83594 11.7969 3.28594C11.6891 3.73125 11.5953 4.13906 11.5813 4.18125C11.5625 4.24687 11.2438 4.3875 11.2063 4.34531C11.2016 4.34062 11.1172 3.69375 11.0234 2.91094C10.9344 2.12812 10.8359 1.45312 10.8172 1.41094C10.7188 1.22812 10.5594 1.2 10.0531 1.25625C9.79063 1.28906 9.57031 1.30312 9.55625 1.28906C9.51875 1.25156 10.1516 0.970312 10.4141 0.909374C10.7516 0.824999 11.2484 0.829687 11.6047 0.918749ZM10.0625 2.12812C10.0625 2.1375 10.1281 2.67656 10.2031 3.32812C10.2828 3.97969 10.3297 4.52812 10.3109 4.54688C10.2922 4.56562 9.42031 4.78594 8.375 5.03437C6.93125 5.38125 6.45312 5.5125 6.37344 5.5875C6.22813 5.72344 6.23281 5.91562 6.40625 6.61875C6.48594 6.93281 6.54688 7.21875 6.54688 7.25156C6.54688 7.29844 6.33594 7.3125 5.59531 7.3125H4.64375L4.38125 5.07187C4.23594 3.84375 4.11875 2.83125 4.12344 2.83125C4.12813 2.82656 5.45 2.6625 7.0625 2.47031C8.675 2.27812 10.0063 2.11875 10.0297 2.11406C10.0484 2.11406 10.0625 2.11875 10.0625 2.12812ZM15.2422 3.80156C16.3766 4.06406 17.3234 4.29375 17.3469 4.31719C17.375 4.34062 17.2531 4.94531 17.0469 5.83594L16.7 7.3125H15.5469H14.3938L14.0094 5.70469C13.6719 4.29375 13.6109 4.0875 13.5078 3.99375C13.3625 3.87187 13.2031 3.8625 12.8188 3.96562C12.6641 4.00312 12.5328 4.03125 12.5234 4.02187C12.5188 4.0125 12.5563 3.825 12.6078 3.60469L12.7016 3.20156L12.9406 3.2625C13.0719 3.29531 14.1078 3.53437 15.2422 3.80156ZM12.9219 4.86094C12.9219 4.88437 13.0484 5.42344 13.2031 6.06562C13.3578 6.70312 13.4844 7.24687 13.4844 7.27031C13.4844 7.29375 12.1906 7.3125 10.4703 7.3125H7.46094L7.32969 6.76406C7.25938 6.46406 7.20781 6.21562 7.21719 6.20625C7.22656 6.20156 12.8141 4.84219 12.8891 4.83281C12.9078 4.83281 12.9219 4.84219 12.9219 4.86094ZM3.64062 6.18281C3.64062 6.225 3.70625 6.74062 3.75781 7.13437L3.78125 7.3125H3.3125C3.05469 7.3125 2.84375 7.29844 2.84375 7.28437C2.84375 7.2 3.52344 6.14062 3.575 6.14062C3.6125 6.14062 3.64062 6.15937 3.64062 6.18281ZM18.8234 6.69844C19.0063 7.00781 19.1562 7.27031 19.1562 7.28437C19.1562 7.29844 18.8094 7.3125 18.3828 7.3125C17.9563 7.3125 17.6094 7.29844 17.6094 7.275C17.6094 7.25625 17.6656 6.99375 17.7359 6.68906L17.8625 6.14062H18.1766H18.4859L18.8234 6.69844ZM19.55 8.44687C19.5641 8.61094 19.7375 11.8828 19.9297 15.7266C20.1219 19.5703 20.2859 22.8094 20.2953 22.9312L20.3141 23.1562H11H1.68594L1.70469 22.9312C1.71406 22.8094 1.87813 19.5703 2.07031 15.7266C2.2625 11.8828 2.43594 8.61094 2.45 8.44687L2.47813 8.15625H11H19.5219L19.55 8.44687Z" fill="#726758"/>
<path id="Vector_2" d="M7.67189 8.95786C6.88439 9.10786 6.45314 10.1204 6.8797 10.8094C6.9922 10.9922 7.26407 11.2407 7.41407 11.2969C7.52189 11.3391 7.52189 11.3438 7.54064 12.4313C7.55939 13.4766 7.56407 13.5375 7.69064 13.8985C8.08907 15.061 9.02657 15.9235 10.1938 16.2047C10.6063 16.3032 11.3938 16.3032 11.8063 16.2047C12.9734 15.9235 13.9109 15.061 14.3094 13.8985C14.4359 13.5375 14.4406 13.4766 14.4594 12.436L14.4781 11.3438L14.6375 11.2688C14.8344 11.175 15.1109 10.8704 15.2047 10.6454C15.3172 10.3875 15.3031 9.90005 15.1766 9.64224C15.0547 9.3938 14.7688 9.11724 14.5203 9.01411C14.3047 8.92036 13.7891 8.92036 13.5734 9.01411C12.6406 9.40317 12.5656 10.8 13.4516 11.2594L13.6344 11.3485L13.6156 12.3188C13.5922 13.4297 13.5359 13.6829 13.2031 14.1938C12.1484 15.8297 9.85157 15.8297 8.79689 14.1938C8.46407 13.6829 8.40782 13.425 8.38439 12.3188L8.36564 11.3485L8.54845 11.2594C8.94689 11.0532 9.1672 10.6641 9.17189 10.1719C9.17189 9.35161 8.4922 8.80317 7.67189 8.95786ZM8.21095 9.91411C8.28126 9.97974 8.32814 10.0829 8.32814 10.1625V10.3032L8.1547 10.2141C7.97189 10.1204 7.79845 10.1344 7.66251 10.2563C7.58282 10.3219 7.57814 10.3172 7.57814 10.1766C7.57814 9.97974 7.75626 9.79692 7.95314 9.79692C8.0422 9.79692 8.14064 9.83911 8.21095 9.91411ZM14.3047 9.91411C14.3797 9.98442 14.4219 10.0782 14.4219 10.1766C14.4219 10.3172 14.4172 10.3219 14.3422 10.2563C14.2156 10.1485 14.0422 10.125 13.85 10.1907C13.6766 10.2516 13.6719 10.2516 13.6719 10.1391C13.6719 9.97974 13.8688 9.79692 14.0469 9.79692C14.1359 9.79692 14.2344 9.83911 14.3047 9.91411Z" fill="#726758"/>
</g>
</svg>
