<svg width="24" height="16" viewBox="0 0 24 16" fill="none" xmlns="http://www.w3.org/2000/svg">
<g id="Black">
<path id="Vector" d="M1.96445 0.514062C1.88008 0.570312 1.7582 0.692187 1.70195 0.776562L1.59414 0.935937V4.55469V8.17344L1.70195 8.27187C1.83789 8.40312 2.10508 8.40781 2.25508 8.28594L2.36758 8.19687L2.38164 4.7L2.39102 1.20312H9.60977H16.8285V4.69531C16.8285 8.12656 16.8285 8.1875 16.9223 8.28125C17.0441 8.40312 17.3395 8.40781 17.4895 8.28594C17.5785 8.21562 17.602 8.14531 17.616 7.8875L17.6348 7.57344L19.9645 7.5875L22.2895 7.60156L22.5098 7.70937C22.7441 7.82656 23.0816 8.16875 23.1238 8.32812C23.1473 8.41719 23.1238 8.42187 22.5004 8.42187C21.6285 8.42187 21.6379 8.4125 21.6191 9.14375C21.5957 9.86094 21.6754 10.1422 21.9754 10.4422C22.2238 10.6906 22.5473 10.8125 22.9551 10.8125H23.2035V11.6094V12.4062H22.7488H22.2895L22.1535 12.1203C21.9848 11.75 21.4973 11.2578 21.1316 11.0844C20.391 10.7234 19.641 10.7234 18.9004 11.0844C18.5348 11.2578 18.0613 11.7406 17.8832 12.1109C17.6395 12.6219 17.6254 12.5656 17.6254 10.9766C17.6254 9.26094 17.616 9.21875 17.1848 9.21875C17.0863 9.21875 16.9973 9.25625 16.9316 9.32656C16.8285 9.43437 16.8285 9.4625 16.8285 10.9203V12.4062H12.952H9.0707L8.90664 12.0922C8.41914 11.15 7.33164 10.6437 6.27227 10.8641C5.61133 11 4.93633 11.525 4.65977 12.1109L4.52383 12.4016H3.45977L2.39102 12.4062V12.0078V11.6094H3.25352C4.05039 11.6094 4.1207 11.6047 4.23789 11.5109C4.33633 11.4359 4.35977 11.375 4.35977 11.2109C4.35977 11.0469 4.33633 10.9859 4.23789 10.9109C4.11602 10.8172 4.06445 10.8125 2.18008 10.8125C0.295703 10.8125 0.244141 10.8172 0.122266 10.9109C-0.0511719 11.0469 -0.0511719 11.375 0.122266 11.5109C0.234766 11.6 0.309766 11.6094 0.919141 11.6094H1.59414V12.1437C1.59414 12.6172 1.60352 12.6922 1.70195 12.8281C1.93633 13.1797 1.93633 13.1797 3.23945 13.1937L4.40664 13.2078V13.4094C4.40664 14.0703 4.92695 14.9094 5.56445 15.2797C6.12227 15.5984 6.90039 15.6875 7.50977 15.5C8.0957 15.3219 8.67695 14.8344 8.92539 14.3141C9.06602 14.0281 9.18789 13.5781 9.18789 13.3578V13.2031H13.4066H17.6254V13.3812C17.6254 13.6344 17.7473 14.0703 17.8973 14.3469C18.0613 14.6609 18.577 15.1766 18.8676 15.3219C19.5941 15.6922 20.4379 15.6922 21.1645 15.3219C21.4551 15.1766 21.9707 14.6609 22.1348 14.3469C22.2848 14.0703 22.4066 13.6344 22.4066 13.3812V13.2031H23.0816C23.691 13.2031 23.766 13.1937 23.8785 13.1047L24.0051 13.0062L23.991 10.6344L23.977 8.25781L23.827 7.94375C23.5832 7.42344 23.1801 7.08125 22.5707 6.875L22.341 6.79531L22.041 5.6L21.741 4.40469L21.8863 4.25937C22.0223 4.12812 22.0316 4.09062 22.0316 3.79531C22.0316 2.99844 21.7363 2.47812 21.0941 2.13594C20.8832 2.02344 20.8691 2.02344 19.2613 2.00937L17.6348 1.99531L17.616 1.47031C17.5973 0.879687 17.5363 0.720312 17.2879 0.537499L17.1332 0.429687L9.62852 0.415625L2.12383 0.406249L1.96445 0.514062ZM20.7051 2.84844C20.9488 2.9375 21.1363 3.16719 21.2066 3.4625L21.2348 3.59375H19.4301H17.6254V3.19531V2.79687H19.0973C20.0301 2.79687 20.6207 2.81562 20.7051 2.84844ZM20.9488 4.56406C20.977 4.6625 21.1082 5.20156 21.2488 5.75937L21.5066 6.78125H19.566H17.6254V5.58594V4.39062H19.266H20.902L20.9488 4.56406ZM23.2035 9.61719V10.0156H22.9926C22.5895 10.0156 22.4066 9.83281 22.4066 9.42969V9.21875H22.8051H23.2035V9.61719ZM7.46758 11.7687C7.77227 11.9141 8.12383 12.275 8.26445 12.5844C8.41914 12.9172 8.40977 13.5125 8.2457 13.8594C8.0957 14.1828 7.80977 14.4734 7.49102 14.6422C7.2707 14.7594 7.19102 14.7734 6.79727 14.7734C6.26758 14.7734 6.01445 14.675 5.67227 14.3281C5.32539 13.9859 5.22695 13.7328 5.22695 13.2031C5.22695 12.7297 5.28789 12.5516 5.56445 12.1906C5.97227 11.6516 6.83945 11.4594 7.46758 11.7687ZM20.6863 11.7641C21.0332 11.9375 21.3801 12.3125 21.5113 12.6641C21.802 13.4234 21.4363 14.2906 20.677 14.6656C20.3629 14.8203 19.6645 14.8203 19.3551 14.6656C19.0223 14.5016 18.7832 14.2719 18.6098 13.9484C18.2957 13.3578 18.3801 12.6734 18.8254 12.1766C19.2051 11.7547 19.5613 11.6 20.0957 11.6281C20.3395 11.6375 20.4988 11.675 20.6863 11.7641Z" fill="#726758"/>
<path id="Vector_2" d="M6.44062 12.4953C6.14062 12.6312 6.02344 12.8328 6.02344 13.2125C6.02344 13.55 6.08906 13.6906 6.34219 13.8781C6.525 14.014 6.95625 14.0328 7.17187 13.9156C7.61719 13.6718 7.725 13.0812 7.39219 12.7015C7.12969 12.4062 6.80156 12.3312 6.44062 12.4953Z" fill="#726758"/>
<path id="Vector_3" d="M19.6412 12.514C19.1303 12.7812 19.0834 13.5312 19.5522 13.864C19.7443 13.9999 20.1193 14.0374 20.349 13.939C20.7568 13.7702 20.9397 13.1984 20.71 12.8093C20.5834 12.589 20.2647 12.4062 20.0162 12.4062C19.9225 12.4062 19.7537 12.4531 19.6412 12.514Z" fill="#726758"/>
<path id="Vector_4" d="M10.8891 5.7125L9.1875 7.40937L8.28281 6.50937C7.42969 5.66094 7.36875 5.60938 7.2 5.60938C6.96562 5.60938 6.79688 5.77344 6.79688 6.0125C6.79688 6.18125 6.85312 6.24687 7.88906 7.28281L8.97656 8.375H9.1875H9.39375L11.2406 6.53281C12.2531 5.525 13.1156 4.63437 13.1531 4.56406C13.2094 4.45625 13.2141 4.4 13.1719 4.26875C13.1062 4.08125 13.0078 4.01562 12.7641 4.01562C12.5953 4.01562 12.525 4.08125 10.8891 5.7125Z" fill="#726758"/>
<path id="Vector_5" d="M0.899935 9.32661C0.768685 9.46255 0.763997 9.72974 0.885872 9.87974L0.974935 9.99224L3.47806 10.0063C4.8515 10.011 6.02337 10.0063 6.08431 9.99224C6.37493 9.92192 6.48275 9.52349 6.26712 9.32192L6.15931 9.2188H3.58118H0.998372L0.899935 9.32661Z" fill="#726758"/>
<path id="Vector_6" d="M9.72656 10.9297C9.64688 11.0047 9.60938 11.0938 9.60938 11.2109C9.60938 11.3281 9.64688 11.4172 9.72656 11.4922L9.83906 11.6094H12.7875C15.7031 11.6094 15.7406 11.6094 15.8625 11.5109C15.9609 11.4359 15.9844 11.375 15.9844 11.2109C15.9844 11.0469 15.9609 10.9859 15.8625 10.9109C15.7406 10.8125 15.7031 10.8125 12.7875 10.8125H9.83906L9.72656 10.9297Z" fill="#726758"/>
</g>
</svg>
