<svg width="24" height="24" viewBox="0 0 24 24" fill="none" xmlns="http://www.w3.org/2000/svg">
<g id="Black">
<path id="Vector" d="M18.3747 0.0890245C17.4981 0.281212 16.795 0.670274 16.134 1.32184C15.6278 1.81871 15.0934 2.66246 15.0934 2.97184C15.0934 3.12184 15.2153 3.27184 15.3653 3.30465C15.5997 3.35621 15.7356 3.26246 15.895 2.94371C16.3309 2.07184 17.0762 1.3734 17.9528 1.01715C18.8387 0.656212 19.959 0.660899 20.859 1.03121C21.909 1.46246 22.795 2.4609 23.109 3.56246C23.2543 4.06871 23.2872 4.87496 23.1793 5.3859C22.8372 7.06871 21.6981 8.8359 19.8465 10.5515L19.3965 10.9687L19.2747 10.875C19.0168 10.6734 17.8825 9.52496 17.5497 9.11715C16.8184 8.2359 16.2325 7.2984 15.9137 6.51559C15.7309 6.0609 15.5668 5.39059 15.534 4.95465C15.52 4.74371 15.4872 4.51402 15.459 4.44371C15.37 4.20465 14.9856 4.16246 14.8356 4.3734C14.7418 4.50465 14.7465 4.93121 14.8403 5.48902C15.0747 6.86246 15.8668 8.35309 17.1465 9.82496L17.4747 10.2046L17.2122 10.3125C16.0872 10.7625 15.7543 11.5921 16.4293 12.2484C16.6778 12.4875 16.9403 12.6328 17.4231 12.7921C19.2418 13.4015 21.9231 12.9937 22.5231 12.0234C22.6403 11.8359 22.6637 11.7468 22.6637 11.5031C22.6637 11.2546 22.645 11.1796 22.5231 11.0062C22.3309 10.739 21.9793 10.4812 21.5997 10.3312L21.2856 10.2046L21.5997 9.8484C24.0653 7.04996 24.6653 4.19527 23.2356 2.0484C22.72 1.27965 21.8622 0.581212 21.0747 0.295274C20.47 0.0749617 20.2731 0.0421495 19.5231 0.018712C18.909 0.00464916 18.7028 0.018712 18.3747 0.0890245ZM18.4918 11.2031C18.8856 11.5687 19.1762 11.7937 19.2981 11.8312C19.4622 11.8828 19.6684 11.7562 20.1934 11.2781L20.6762 10.8375L20.9762 10.9218C21.3278 11.025 21.7028 11.2171 21.8528 11.3765C21.9512 11.4796 21.9512 11.4937 21.8809 11.6156C21.7918 11.7703 21.2293 12.0656 20.8403 12.164C19.4434 12.5156 17.4512 12.2625 16.9497 11.6718C16.8559 11.5546 16.8372 11.5031 16.8747 11.4375C16.9684 11.264 17.3528 11.0437 17.7887 10.9218C18.1075 10.8281 18.0747 10.814 18.4918 11.2031Z" fill="#726758"/>
<path id="Vector_2" d="M18.9004 2.60156C17.9067 2.81719 17.1942 3.85781 17.3442 4.86094C17.4239 5.38594 17.5692 5.69531 17.902 6.0375C18.3098 6.45469 18.7879 6.65625 19.3832 6.65625C21.2582 6.65625 22.1536 4.3875 20.7895 3.09844C20.4942 2.81719 20.1379 2.63906 19.7489 2.57813C19.402 2.51719 19.2661 2.52188 18.9004 2.60156ZM19.7676 3.35156C20.0864 3.44531 20.4379 3.76406 20.5786 4.0875C20.8598 4.73438 20.5973 5.44219 19.9598 5.76094C18.8348 6.32344 17.6536 5.11875 18.2301 3.99844C18.3754 3.70781 18.7223 3.42656 19.0364 3.3375C19.2707 3.26719 19.5004 3.27188 19.7676 3.35156Z" fill="#726758"/>
<path id="Vector_3" d="M5.39995 7.22343C2.63902 7.44375 0.440578 9.53437 0.0421401 12.3234C-0.0656724 13.0734 0.0280776 14.1375 0.281203 15.0516C0.703078 16.5984 1.78589 18.3984 3.29527 20.0766C3.47808 20.2734 3.61402 20.4469 3.60464 20.4516C3.59527 20.4609 3.44995 20.5172 3.2812 20.5781C2.7937 20.7469 2.47027 20.9297 2.18902 21.1875C1.86089 21.4875 1.73433 21.7406 1.73433 22.0922C1.73433 22.425 1.80933 22.6172 2.04839 22.8797C2.67652 23.5781 4.11089 23.9953 5.89214 24C6.92808 24 7.5937 23.9062 8.41402 23.6391C10.0078 23.1281 10.5375 22.0969 9.6562 21.2344C9.38433 20.9672 8.86402 20.6766 8.40933 20.5312L8.16089 20.4562L8.47027 20.1047C8.63902 19.9172 8.98589 19.5 9.23902 19.1812C9.74995 18.5437 9.79683 18.4172 9.58589 18.2109C9.47808 18.0984 9.3187 18.0656 9.1687 18.1219C9.12652 18.1359 8.90152 18.3891 8.66714 18.6844C8.1187 19.3734 7.2187 20.3391 6.60464 20.9016C5.8312 21.6047 5.92964 21.5391 5.7937 21.45C5.58745 21.3187 4.17652 19.9172 3.7312 19.4062C2.46558 17.9531 1.57495 16.5141 1.12964 15.2062C0.82964 14.3203 0.77339 13.9687 0.778078 13.0781C0.778078 12.3984 0.796828 12.2484 0.899953 11.8547C1.52808 9.53437 3.52495 7.96406 5.85933 7.96406C6.49214 7.96406 6.89058 8.02031 7.42027 8.18437C9.09839 8.71406 10.4015 10.0734 10.8656 11.7703C11.2781 13.2656 10.9546 15.0094 9.92808 16.8375C9.7312 17.1891 9.70777 17.3719 9.83902 17.5359C9.94683 17.6719 10.2187 17.6812 10.3593 17.5547C10.5843 17.3484 11.1984 16.0547 11.4515 15.2531C11.9062 13.8187 11.8968 12.3141 11.4328 11.0531C10.5234 8.57344 8.05777 7.00781 5.39995 7.22343ZM4.49995 21.3094C4.72964 21.5437 5.48433 22.2 5.67183 22.3266C5.93433 22.5094 6.08433 22.4203 7.09214 21.5016L7.55152 21.0797L7.86558 21.1641C8.24527 21.2625 8.81714 21.5203 9.03277 21.6844C9.12183 21.75 9.22495 21.8766 9.26714 21.9656C9.34214 22.1156 9.33745 22.125 9.22495 22.2984C9.00464 22.6266 8.37652 22.9266 7.51402 23.1141C6.85308 23.2547 5.47027 23.2922 4.7437 23.1844C3.45933 22.9922 2.48433 22.5187 2.48433 22.0828C2.48433 21.7969 3.14527 21.3703 3.89995 21.1687C4.26089 21.0703 4.27495 21.075 4.49995 21.3094Z" fill="#726758"/>
<path id="Vector_4" d="M5.69497 10.528C5.15122 10.5937 4.56528 10.8233 4.33559 11.053C4.12934 11.2593 4.21372 11.6249 4.4809 11.6905C4.57934 11.7187 4.69653 11.6812 4.9684 11.5358C5.17934 11.428 5.44653 11.3296 5.6059 11.3015C6.58559 11.1468 7.50434 11.8171 7.69184 12.8155C7.83247 13.5749 7.39653 14.3858 6.6559 14.7374C6.37934 14.8687 6.30903 14.8827 5.88247 14.8827C5.4934 14.8827 5.37153 14.864 5.18403 14.7749C4.70122 14.5546 4.34497 14.1608 4.16684 13.6499C4.08247 13.4155 4.07309 13.3124 4.10122 12.839C4.13403 12.2483 4.12465 12.2202 3.85747 12.1452C3.51997 12.0468 3.36997 12.2858 3.33715 12.9608C3.30434 13.7624 3.52465 14.353 4.07778 14.9108C4.40122 15.239 4.76215 15.4546 5.21684 15.5858C5.55903 15.6843 6.21528 15.6843 6.58559 15.5858C7.81372 15.2577 8.63872 13.9874 8.44653 12.7171C8.29653 11.7327 7.55122 10.8843 6.60903 10.6265C6.32309 10.5468 5.91059 10.5046 5.69497 10.528Z" fill="#726758"/>
<path id="Vector_5" d="M14.0998 11.2969C13.9826 11.4187 13.9639 11.4656 13.9873 11.5922C14.0342 11.8312 14.1654 11.9062 14.5404 11.9062C14.8779 11.9062 15.1076 11.8266 15.1592 11.6953C15.2201 11.5359 15.1873 11.3578 15.0795 11.2594C14.9858 11.1703 14.9154 11.1562 14.6061 11.1562C14.2639 11.1562 14.2358 11.1656 14.0998 11.2969Z" fill="#726758"/>
<path id="Vector_6" d="M12.7122 11.9859C12.5997 12.1125 12.4872 12.2625 12.4591 12.3234C12.3606 12.5812 12.5388 12.8438 12.806 12.8438C12.97 12.8438 13.3122 12.5391 13.4294 12.3C13.5653 12.0141 13.4153 11.7656 13.1106 11.7656C12.9466 11.7656 12.895 11.7937 12.7122 11.9859Z" fill="#726758"/>
<path id="Vector_7" d="M12.1359 13.4953C12.0375 13.575 12.0234 13.6266 12.0234 13.9078C12.0234 14.3016 12.1031 14.5031 12.2859 14.5781C12.3938 14.625 12.45 14.625 12.5672 14.5781C12.7594 14.4984 12.8109 14.3438 12.7734 13.95C12.7453 13.7016 12.7125 13.5984 12.6281 13.5141C12.4969 13.3828 12.2859 13.3734 12.1359 13.4953Z" fill="#726758"/>
<path id="Vector_8" d="M12.9562 15.0938C12.825 15.1453 12.7031 15.3188 12.7031 15.4547C12.7031 15.5813 12.9281 15.8485 13.1578 15.9891C13.3781 16.125 13.5891 16.1157 13.725 15.961C13.8891 15.7688 13.8609 15.6235 13.6078 15.3844C13.425 15.2157 13.1344 15.0328 13.0687 15.0516C13.0594 15.0516 13.0078 15.0703 12.9562 15.0938Z" fill="#726758"/>
<path id="Vector_9" d="M14.5737 15.75C14.4378 15.8297 14.3721 16.0594 14.4378 16.2187C14.5221 16.4156 14.6112 16.4531 15.0237 16.4531C15.3378 16.4531 15.394 16.4391 15.4925 16.3359C15.5675 16.2656 15.6096 16.1672 15.6096 16.0781C15.6096 15.9891 15.5675 15.8906 15.4925 15.8203C15.394 15.7172 15.3425 15.7031 15.0143 15.7031C14.8128 15.7031 14.6159 15.7266 14.5737 15.75Z" fill="#726758"/>
<path id="Vector_10" d="M16.3828 15.8203C16.3078 15.8906 16.2656 15.9891 16.2656 16.0781C16.2656 16.1672 16.3078 16.2656 16.3828 16.3359C16.4813 16.4391 16.5375 16.4531 16.8234 16.4531C17.0063 16.4531 17.2031 16.4297 17.2688 16.4016C17.4328 16.3266 17.5125 16.1156 17.4422 15.9422C17.3625 15.7641 17.2125 15.7031 16.8234 15.7031C16.5375 15.7031 16.4813 15.7172 16.3828 15.8203Z" fill="#726758"/>
<path id="Vector_11" d="M18.2625 15.8016C18.1688 15.8766 18.1406 15.9375 18.1406 16.0781C18.1406 16.3547 18.2953 16.4531 18.7266 16.4531C19.1578 16.4531 19.3125 16.3547 19.3125 16.0781C19.3125 15.8016 19.1578 15.7031 18.7266 15.7031C18.4547 15.7031 18.3609 15.7219 18.2625 15.8016Z" fill="#726758"/>
<path id="Vector_12" d="M20.1518 15.75C20.0159 15.8344 19.9503 16.0594 20.0159 16.2188C20.1003 16.4156 20.1893 16.4531 20.6018 16.4531C20.9159 16.4531 20.9721 16.4391 21.0706 16.3359C21.2112 16.2 21.2206 15.9891 21.0987 15.8391C21.019 15.7406 20.9628 15.7266 20.6159 15.7125C20.405 15.7078 20.194 15.7219 20.1518 15.75Z" fill="#726758"/>
<path id="Vector_13" d="M21.9143 16.1813C21.68 16.3875 21.7503 16.6453 22.1112 16.8938C22.505 17.1703 22.8237 17.1281 22.8893 16.7906C22.9268 16.5891 22.8472 16.4625 22.5425 16.2656C22.2097 16.05 22.0878 16.0359 21.9143 16.1813Z" fill="#726758"/>
<path id="Vector_14" d="M23.1141 17.5594C23.0578 17.6298 23.0156 17.7329 23.0156 17.7938C23.0156 17.9673 23.25 18.511 23.3484 18.5626C23.5922 18.6938 23.9063 18.5204 23.9063 18.2579C23.9063 18.0469 23.7422 17.6251 23.6156 17.5173C23.4703 17.3954 23.2313 17.4141 23.1141 17.5594Z" fill="#726758"/>
<path id="Vector_15" d="M23.3532 19.35C23.3016 19.4015 23.2266 19.589 23.1844 19.7672C23.1094 20.0719 23.1094 20.1094 23.1751 20.2453C23.2594 20.4 23.4141 20.4656 23.6016 20.4187C23.7563 20.3812 23.836 20.2453 23.9344 19.8656C24.0188 19.5515 24.0188 19.5469 23.9251 19.4203C23.7985 19.2515 23.4891 19.214 23.3532 19.35Z" fill="#726758"/>
<path id="Vector_16" d="M22.4997 20.9343C22.4341 20.9812 22.3028 21.089 22.2091 21.1828C21.9794 21.3937 21.9606 21.6422 22.1528 21.7922C22.3684 21.9609 22.5559 21.9 22.9356 21.5484C23.1372 21.3562 23.1653 21.1781 23.0106 20.9812C22.8981 20.8359 22.6778 20.8172 22.4997 20.9343Z" fill="#726758"/>
<path id="Vector_17" d="M18.7215 21.689C18.5246 21.7124 18.4121 21.8484 18.4121 22.0546C18.4121 22.3781 18.6277 22.4812 19.1668 22.4109C19.4996 22.3734 19.5934 22.2937 19.5934 22.064C19.5934 21.7218 19.3402 21.614 18.7215 21.689Z" fill="#726758"/>
<path id="Vector_18" d="M20.4797 21.7078C20.3531 21.7547 20.25 21.9234 20.25 22.0734C20.25 22.1203 20.2922 22.2141 20.3484 22.2844C20.4375 22.3969 20.4703 22.4062 20.7938 22.4062C21.2953 22.4062 21.4641 22.2984 21.4688 21.9703C21.4688 21.9234 21.4172 21.8344 21.3516 21.7734C21.2531 21.6703 21.1969 21.6562 20.9203 21.6609C20.7469 21.6609 20.5453 21.6844 20.4797 21.7078Z" fill="#726758"/>
<path id="Vector_19" d="M11.17 21.75C10.9496 21.8391 10.8981 22.1813 11.0762 22.35C11.17 22.4391 11.2403 22.4531 11.5496 22.4531C11.9715 22.4531 12.0653 22.4156 12.1356 22.2188C12.1918 22.0453 12.1403 21.8813 11.9903 21.7781C11.8731 21.6938 11.3528 21.6797 11.17 21.75Z" fill="#726758"/>
<path id="Vector_20" d="M12.9937 21.7781C12.8437 21.8812 12.7875 22.05 12.8484 22.2047C12.9234 22.4062 13.0265 22.4484 13.4109 22.4531C13.8609 22.4531 14.0156 22.3594 14.0156 22.0781C14.0156 21.8016 13.8609 21.7031 13.4344 21.7031C13.2047 21.7031 13.064 21.7266 12.9937 21.7781Z" fill="#726758"/>
<path id="Vector_21" d="M14.7885 21.8203C14.6057 21.9984 14.662 22.2984 14.8917 22.4015C15.051 22.4765 15.5432 22.4672 15.6979 22.3828C15.9229 22.2703 15.9604 22.0031 15.7729 21.8203C15.6698 21.7172 15.6229 21.7031 15.2807 21.7031C14.9385 21.7031 14.8917 21.7172 14.7885 21.8203Z" fill="#726758"/>
<path id="Vector_22" d="M16.6499 21.811C16.5187 21.947 16.514 22.186 16.6359 22.3079C16.8234 22.4954 17.4562 22.5001 17.639 22.322C17.7796 22.1814 17.7749 21.9095 17.6296 21.7923C17.5452 21.722 17.4421 21.7032 17.1374 21.7032C16.7952 21.7032 16.739 21.7173 16.6499 21.811Z" fill="#726758"/>
</g>
</svg>
