<svg width="24" height="14" viewBox="0 0 24 14" fill="none" xmlns="http://www.w3.org/2000/svg">
<g id="Black">
<path id="Vector" d="M7.28906 0.324977C6.64219 0.484352 5.91094 0.948415 5.47969 1.48279C5.3625 1.6281 4.84687 2.48123 4.33594 3.38123C3.25312 5.27498 3.19687 5.36404 2.98125 5.49998C2.89219 5.55154 2.44219 5.69216 1.98281 5.80935C1.52812 5.92654 1.06875 6.06716 0.965625 6.11873C0.689062 6.25935 0.31875 6.65779 0.159375 6.97654L0.0234375 7.25779V9.08591V10.914L0.159375 11.1953C0.3375 11.5562 0.69375 11.9125 1.05469 12.0906C1.33125 12.2265 1.34531 12.2265 2.28281 12.2406L3.22969 12.2547L3.36562 12.4984C3.65625 13.014 4.28437 13.4875 4.91719 13.675C5.29687 13.7875 6.00469 13.7734 6.40312 13.6515C7.00781 13.464 7.59375 13.0094 7.88437 12.4984L8.025 12.25H12H15.975L16.1156 12.4937C16.4062 13.014 17.0297 13.4875 17.6672 13.675C18.0469 13.7875 18.7547 13.7734 19.1531 13.6515C19.7578 13.4687 20.3437 13.0094 20.6344 12.4984L20.7703 12.2547L21.7172 12.2406C22.6547 12.2265 22.6687 12.2265 22.9453 12.0906C23.3062 11.9125 23.6625 11.5562 23.8406 11.1953L23.9766 10.914L23.9906 9.81716C24.0094 8.51404 23.9672 8.24685 23.6344 7.5906C23.4609 7.25779 23.3297 7.07966 23.0391 6.78904C22.3875 6.13748 21.9656 5.95466 20.5922 5.7156C19.6078 5.54216 19.4344 5.47185 19.2047 5.16248C19.1437 5.0781 18.675 4.27654 18.1641 3.38123C17.6531 2.48123 17.1375 1.6281 17.0203 1.48279C16.5844 0.943727 15.9141 0.512477 15.2531 0.343727C14.9062 0.254664 14.7281 0.249977 11.2312 0.254664C8.20312 0.259352 7.52344 0.268727 7.28906 0.324977ZM15.0281 1.1031C15.5766 1.27185 16.1062 1.61873 16.4062 2.00779C16.5047 2.13435 17.0203 3.00623 17.55 3.93904C18.2062 5.08748 18.5906 5.70623 18.7312 5.85154C19.0641 6.19373 19.3875 6.3156 20.4516 6.5031C21.2156 6.63435 21.4359 6.6906 21.7172 6.82654L22.0547 6.9906L21.6234 6.99529C21.2437 6.99998 21.1734 7.01404 21.0891 7.09841C21 7.18748 20.9906 7.23904 21.0094 7.56248C21.0469 8.20935 21.4453 8.7906 22.0547 9.08591C22.2891 9.2031 22.4016 9.22654 22.7953 9.2406L23.2594 9.25935L23.2406 9.92498C23.2172 10.6703 23.1516 10.8906 22.8703 11.1578C22.5984 11.4109 22.4109 11.4672 21.6703 11.4906L21 11.514V11.0922C21 10.3234 20.7703 9.77029 20.2266 9.22654C19.1906 8.19529 17.5312 8.19998 16.5 9.24529C15.9797 9.77029 15.75 10.3375 15.75 11.0875V11.5H12H8.25V11.0875C8.25 10.3234 8.02031 9.77029 7.47656 9.22654C6.44062 8.19529 4.78125 8.19998 3.75 9.24529C3.22969 9.77029 3 10.3375 3 11.0922V11.514L2.33437 11.4906C1.59375 11.4672 1.36406 11.4015 1.10625 11.1437C0.848437 10.8859 0.782812 10.6562 0.759375 9.9156L0.735937 9.24998H1.21406C1.6125 9.24998 1.70156 9.23591 1.77187 9.1656C1.82812 9.10935 1.93125 8.78123 2.05312 8.29841C2.3625 7.0656 2.33906 6.99998 1.6125 6.99998C0.9 6.99998 1.11562 6.85935 2.29687 6.55466C3.17344 6.32966 3.46875 6.19373 3.76406 5.87966C3.88594 5.74841 4.37344 4.95154 4.99219 3.86404C6.09844 1.9281 6.24375 1.73591 6.77812 1.41248C7.12031 1.20623 7.43437 1.09841 7.82812 1.04685C7.99687 1.0281 9.63281 1.01404 11.4609 1.01873C14.3109 1.0281 14.8219 1.04216 15.0281 1.1031ZM1.35937 7.78279C1.35937 7.80623 1.32187 7.9656 1.275 8.14841L1.19062 8.47654L0.970312 8.4906L0.75 8.50466V8.15779C0.75 7.97029 0.764062 7.79685 0.782812 7.78279C0.825 7.73591 1.35937 7.7406 1.35937 7.78279ZM22.9359 7.99841C23.0016 8.13435 23.0719 8.30779 23.0906 8.3781L23.1234 8.50935L22.8703 8.47654C22.4156 8.4156 22.0781 8.20466 21.9094 7.88123L21.8391 7.74998H22.3266H22.8141L22.9359 7.99841ZM6.18281 9.37185C6.67031 9.52654 7.08281 9.89685 7.30312 10.3656C7.41562 10.6 7.42969 10.689 7.42969 11.125C7.42969 11.5609 7.41562 11.6453 7.30312 11.889C7.13906 12.2359 6.73594 12.639 6.38906 12.8031C6.14531 12.9156 6.06094 12.9297 5.625 12.9297C5.16094 12.9297 5.10937 12.9203 4.82344 12.7797C4.44844 12.5969 4.12031 12.2594 3.94687 11.8844C3.83437 11.65 3.82031 11.5609 3.82031 11.125C3.82031 10.689 3.83437 10.6 3.94687 10.3656C4.34062 9.52185 5.30625 9.0906 6.18281 9.37185ZM18.9328 9.37185C19.4203 9.52654 19.8328 9.89685 20.0531 10.3656C20.1656 10.6 20.1797 10.689 20.1797 11.125C20.1797 11.5609 20.1656 11.6453 20.0531 11.889C19.8891 12.2359 19.4859 12.639 19.1391 12.8031C18.8953 12.9156 18.8109 12.9297 18.375 12.9297C17.9109 12.9297 17.8594 12.9203 17.5734 12.7797C17.1984 12.5969 16.8703 12.2594 16.6969 11.8844C16.5844 11.65 16.5703 11.5609 16.5703 11.125C16.5703 10.689 16.5844 10.6 16.6969 10.3656C17.0906 9.52185 18.0562 9.0906 18.9328 9.37185Z" fill="#726758"/>
<path id="Vector_2" d="M7.32673 1.46406C7.04079 1.57187 6.71266 1.7875 6.54391 1.98437C6.47829 2.06406 5.99079 2.85156 5.4611 3.73281C4.42985 5.45781 4.38298 5.57031 4.59391 5.78125C4.68766 5.875 4.7486 5.875 7.68766 5.875C10.6267 5.875 10.6877 5.875 10.7814 5.78125C10.8705 5.69219 10.8752 5.62656 10.8752 3.625C10.8752 1.62344 10.8705 1.55781 10.7814 1.46875C10.6924 1.37969 10.6267 1.375 9.13141 1.375C7.72985 1.37969 7.54704 1.38906 7.32673 1.46406ZM10.1252 3.625V5.125H7.84704H5.56891L5.63454 5.01719C5.67204 4.96094 6.00485 4.40781 6.37516 3.78906C6.74079 3.17031 7.1111 2.59375 7.19079 2.50937C7.50485 2.17187 7.67829 2.13906 9.0611 2.12969L10.1252 2.125V3.625Z" fill="#726758"/>
<path id="Vector_3" d="M11.7187 1.46875C11.625 1.5625 11.625 1.60938 11.625 3.625C11.625 5.62656 11.6297 5.69219 11.7187 5.78125C11.8125 5.875 11.8734 5.875 14.8125 5.875C17.7516 5.875 17.8125 5.875 17.9062 5.78125C18.0937 5.59375 18.0375 5.40156 17.55 4.58594C17.3016 4.17344 17.0578 3.78906 17.0016 3.72813C16.8797 3.59688 16.6031 3.5875 16.4484 3.71406C16.2562 3.86875 16.2984 4.09375 16.6125 4.60938C16.7625 4.85313 16.8937 5.06875 16.9078 5.0875C16.9172 5.11094 15.9047 5.125 14.6531 5.125H12.375V3.62031V2.11563L13.5609 2.13438C14.5641 2.14844 14.7703 2.1625 14.9297 2.23281C15.1641 2.34063 15.3891 2.55625 15.5484 2.82813C15.75 3.17969 15.8344 3.25 16.0594 3.25C16.2187 3.25 16.2797 3.22656 16.3547 3.12813C16.5047 2.94063 16.4766 2.79063 16.2187 2.37344C15.9562 1.94688 15.7125 1.7125 15.3281 1.525L15.0703 1.39844L13.4437 1.38438C11.8594 1.37031 11.8125 1.375 11.7187 1.46875Z" fill="#726758"/>
<path id="Vector_4" d="M4.59375 6.34375C4.53281 6.40469 4.5 6.49844 4.5 6.625C4.5 6.95312 4.59375 7 5.25 7C5.90625 7 6 6.95312 6 6.625C6 6.29688 5.90625 6.25 5.25 6.25C4.74844 6.25 4.67813 6.25937 4.59375 6.34375Z" fill="#726758"/>
<path id="Vector_5" d="M11.7188 6.34375C11.6578 6.40469 11.625 6.49844 11.625 6.625C11.625 6.95312 11.7188 7 12.375 7C13.0312 7 13.125 6.95312 13.125 6.625C13.125 6.29688 13.0312 6.25 12.375 6.25C11.8734 6.25 11.8031 6.25937 11.7188 6.34375Z" fill="#726758"/>
<path id="Vector_6" d="M5.13281 10.0891C4.725 10.2766 4.5 10.6516 4.5 11.1344C4.50469 11.8 4.95469 12.25 5.625 12.25C6.3 12.25 6.75 11.8 6.75 11.125C6.75 10.6375 6.50156 10.2484 6.08438 10.075C5.84063 9.97187 5.36719 9.98125 5.13281 10.0891ZM5.85938 10.8906C5.91094 10.9422 5.95312 11.0453 5.95312 11.125C5.95312 11.2047 5.91094 11.3078 5.85938 11.3594C5.65781 11.5609 5.29688 11.4109 5.29688 11.125C5.29688 10.9469 5.44688 10.7969 5.625 10.7969C5.70469 10.7969 5.80781 10.8391 5.85938 10.8906Z" fill="#726758"/>
<path id="Vector_7" d="M17.8828 10.0891C17.475 10.2766 17.25 10.6516 17.25 11.1344C17.2547 11.8 17.7047 12.25 18.375 12.25C19.05 12.25 19.5 11.8 19.5 11.125C19.5 10.6375 19.2516 10.2484 18.8344 10.075C18.5906 9.97187 18.1172 9.98125 17.8828 10.0891ZM18.6094 10.8906C18.6609 10.9422 18.7031 11.0453 18.7031 11.125C18.7031 11.2047 18.6609 11.3078 18.6094 11.3594C18.5578 11.4109 18.4547 11.4531 18.375 11.4531C18.2953 11.4531 18.1922 11.4109 18.1406 11.3594C18.0891 11.3078 18.0469 11.2047 18.0469 11.125C18.0469 11.0453 18.0891 10.9422 18.1406 10.8906C18.1922 10.8391 18.2953 10.7969 18.375 10.7969C18.4547 10.7969 18.5578 10.8391 18.6094 10.8906Z" fill="#151515"/>
</g>
</svg>
